<svg width="298" height="32" viewBox="0 0 298 32" fill="none" xmlns="http://www.w3.org/2000/svg">
<path d="M45.2761 21.4215C45.2761 23.3052 44.2819 24.2471 42.2934 24.2471H41.9041V9.24707H45.2761V21.4215Z" fill="#1967FC"/>
<path d="M37.2761 9.24707H40.7487V17.3773H40.1835C38.6429 17.3773 37.7241 16.8795 37.4268 15.8839C37.3264 15.5613 37.2761 15.1889 37.2761 14.7668V9.24707Z" fill="white"/>
<path d="M58.8134 18.196C58.8134 18.6174 58.7868 18.998 58.7336 19.3379H50.3334C50.3999 20.235 50.7258 20.9555 51.3111 21.4992C51.8964 22.043 52.6147 22.3149 53.466 22.3149C54.6898 22.3149 55.5544 21.7915 56.0599 20.7448H58.5141C58.1815 21.7779 57.5763 22.6275 56.6984 23.2936C55.8337 23.9461 54.7563 24.2723 53.466 24.2723C52.4152 24.2723 51.4707 24.0344 50.6327 23.5587C49.808 23.0693 49.1562 22.3896 48.6774 21.5196C48.2118 20.6361 47.979 19.6165 47.979 18.4611C47.979 17.3056 48.2051 16.2929 48.6574 15.4229C49.123 14.5394 49.7681 13.8597 50.5928 13.3839C51.4308 12.9081 52.3886 12.6703 53.466 12.6703C54.5036 12.6703 55.428 12.9013 56.2395 13.3635C57.0509 13.8257 57.6827 14.4782 58.135 15.321C58.5872 16.1502 58.8134 17.1085 58.8134 18.196ZM56.439 17.462C56.4257 16.6056 56.1264 15.9191 55.5411 15.4025C54.9558 14.886 54.2309 14.6277 53.3663 14.6277C52.5814 14.6277 51.9097 14.886 51.351 15.4025C50.7923 15.9055 50.4598 16.592 50.3534 17.462H56.439Z" fill="white"/>
<path d="M60.2936 18.4203C60.2936 17.292 60.5197 16.2929 60.972 15.4229C61.4376 14.553 62.0628 13.8801 62.8476 13.4043C63.6457 12.9149 64.5236 12.6703 65.4813 12.6703C66.346 12.6703 67.0975 12.847 67.736 13.2004C68.3878 13.5402 68.9066 13.9684 69.2923 14.485V12.8538H71.5869V24.0888H69.2923V22.4168C68.9066 22.947 68.3811 23.3887 67.716 23.7422C67.051 24.0956 66.2927 24.2723 65.4414 24.2723C64.497 24.2723 63.6324 24.0276 62.8476 23.5383C62.0628 23.0353 61.4376 22.342 60.972 21.4585C60.5197 20.5613 60.2936 19.5486 60.2936 18.4203ZM69.2923 18.4611C69.2923 17.6863 69.1327 17.0134 68.8135 16.4425C68.5075 15.8715 68.1018 15.4365 67.5963 15.1375C67.0909 14.8384 66.5455 14.6889 65.9602 14.6889C65.3749 14.6889 64.8295 14.8384 64.3241 15.1375C63.8186 15.4229 63.4062 15.8511 63.087 16.4221C62.7811 16.9794 62.6281 17.6455 62.6281 18.4203C62.6281 19.1951 62.7811 19.8748 63.087 20.4593C63.4062 21.0439 63.8186 21.4924 64.3241 21.8051C64.8428 22.1042 65.3882 22.2537 65.9602 22.2537C66.5455 22.2537 67.0909 22.1042 67.5963 21.8051C68.1018 21.506 68.5075 21.071 68.8135 20.5001C69.1327 19.9156 69.2923 19.2359 69.2923 18.4611Z" fill="white"/>
<path d="M76.8491 14.485C77.1817 13.9141 77.6206 13.4723 78.166 13.1596C78.7247 12.8334 79.3831 12.6703 80.1413 12.6703V15.0763H79.5627C78.6715 15.0763 77.9931 15.3074 77.5275 15.7696C77.0753 16.2318 76.8491 17.0338 76.8491 18.1756V24.0888H74.5745V12.8538H76.8491V14.485Z" fill="white"/>
<path d="M87.779 12.6703C88.6437 12.6703 89.4152 12.8538 90.0936 13.2208C90.7853 13.5878 91.324 14.1316 91.7097 14.852C92.0955 15.5725 92.2884 16.4425 92.2884 17.462V24.0888H90.0337V17.8086C90.0337 16.8027 89.7876 16.0346 89.2955 15.5045C88.8033 14.9608 88.1315 14.6889 87.2802 14.6889C86.4289 14.6889 85.7505 14.9608 85.245 15.5045C84.7529 16.0346 84.5068 16.8027 84.5068 17.8086V24.0888H82.2322V12.8538H84.5068V14.1384C84.8792 13.6762 85.3515 13.3159 85.9234 13.0577C86.5087 12.7994 87.1272 12.6703 87.779 12.6703Z" fill="white"/>
<path d="M104.149 9.91756V11.8139H100.457V24.0888H98.1827V11.8139H94.4715V9.91756H104.149Z" fill="white"/>
<path d="M123.606 12.6703C124.457 12.6703 125.208 12.847 125.86 13.2004C126.525 13.5402 127.044 13.9684 127.416 14.485V12.8538H129.711V24.2723C129.711 25.3054 129.498 26.223 129.073 27.025C128.647 27.8406 128.028 28.4795 127.217 28.9417C126.419 29.4039 125.461 29.635 124.344 29.635C122.854 29.635 121.617 29.2747 120.633 28.5543C119.648 27.8474 119.09 26.8823 118.957 25.6589H121.211C121.384 26.2434 121.75 26.7124 122.309 27.0658C122.881 27.4328 123.559 27.6163 124.344 27.6163C125.262 27.6163 126 27.3309 126.559 26.7599C127.131 26.189 127.416 25.3598 127.416 24.2723V22.3964C127.031 22.9266 126.505 23.3752 125.84 23.7422C125.188 24.0956 124.444 24.2723 123.606 24.2723C122.648 24.2723 121.77 24.0276 120.972 23.5383C120.187 23.0353 119.562 22.342 119.096 21.4585C118.644 20.5613 118.418 19.5486 118.418 18.4203C118.418 17.292 118.644 16.2929 119.096 15.4229C119.562 14.553 120.187 13.8801 120.972 13.4043C121.77 12.9149 122.648 12.6703 123.606 12.6703ZM127.416 18.4611C127.416 17.6863 127.257 17.0134 126.938 16.4425C126.632 15.8715 126.226 15.4365 125.721 15.1375C125.215 14.8384 124.67 14.6889 124.084 14.6889C123.499 14.6889 122.954 14.8384 122.448 15.1375C121.943 15.4229 121.53 15.8511 121.211 16.4221C120.905 16.9794 120.752 17.6455 120.752 18.4203C120.752 19.1951 120.905 19.8748 121.211 20.4593C121.53 21.0439 121.943 21.4924 122.448 21.8051C122.967 22.1042 123.512 22.2537 124.084 22.2537C124.67 22.2537 125.215 22.1042 125.721 21.8051C126.226 21.506 126.632 21.071 126.938 20.5001C127.257 19.9156 127.416 19.2359 127.416 18.4611Z" fill="white"/>
<path d="M142.775 18.196C142.775 18.6174 142.748 18.998 142.695 19.3379H134.295C134.361 20.235 134.687 20.9555 135.273 21.4992C135.858 22.043 136.576 22.3149 137.427 22.3149C138.651 22.3149 139.516 21.7915 140.021 20.7448H142.476C142.143 21.7779 141.538 22.6275 140.66 23.2936C139.795 23.9461 138.718 24.2723 137.427 24.2723C136.377 24.2723 135.432 24.0344 134.594 23.5587C133.769 23.0693 133.118 22.3896 132.639 21.5196C132.173 20.6361 131.94 19.6165 131.94 18.4611C131.94 17.3056 132.167 16.2929 132.619 15.4229C133.084 14.5394 133.73 13.8597 134.554 13.3839C135.392 12.9081 136.35 12.6703 137.427 12.6703C138.465 12.6703 139.39 12.9013 140.201 13.3635C141.012 13.8257 141.644 14.4782 142.096 15.321C142.549 16.1502 142.775 17.1085 142.775 18.196ZM140.4 17.462C140.387 16.6056 140.088 15.9191 139.503 15.4025C138.917 14.886 138.192 14.6277 137.328 14.6277C136.543 14.6277 135.871 14.886 135.312 15.4025C134.754 15.9055 134.421 16.592 134.315 17.462H140.4Z" fill="white"/>
<path d="M147.667 14.7501V20.9691C147.667 21.3905 147.76 21.6964 147.946 21.8867C148.146 22.0634 148.478 22.1517 148.944 22.1517H150.341V24.0888H148.545C147.521 24.0888 146.736 23.8441 146.19 23.3548C145.645 22.8654 145.372 22.0702 145.372 20.9691V14.7501H144.076V12.8538H145.372V10.0603H147.667V12.8538H150.341V14.7501H147.667Z" fill="white"/>
<path d="M158.124 12.6703C158.962 12.6703 159.707 12.8538 160.358 13.2208C161.023 13.5878 161.542 14.1316 161.915 14.852C162.3 15.5725 162.493 16.4425 162.493 17.462V24.0888H160.239V17.8086C160.239 16.8027 159.993 16.0346 159.5 15.5045C159.008 14.9608 158.336 14.6889 157.485 14.6889C156.634 14.6889 155.955 14.9608 155.45 15.5045C154.958 16.0346 154.712 16.8027 154.712 17.8086V24.0888H152.437V9H154.712V14.1587C155.097 13.683 155.583 13.3159 156.168 13.0577C156.767 12.7994 157.419 12.6703 158.124 12.6703Z" fill="white"/>
<path d="M175.471 18.196C175.471 18.6174 175.444 18.998 175.391 19.3379H166.991C167.057 20.235 167.383 20.9555 167.969 21.4992C168.554 22.043 169.272 22.3149 170.124 22.3149C171.347 22.3149 172.212 21.7915 172.717 20.7448H175.172C174.839 21.7779 174.234 22.6275 173.356 23.2936C172.491 23.9461 171.414 24.2723 170.124 24.2723C169.073 24.2723 168.128 24.0344 167.29 23.5587C166.466 23.0693 165.814 22.3896 165.335 21.5196C164.869 20.6361 164.637 19.6165 164.637 18.4611C164.637 17.3056 164.863 16.2929 165.315 15.4229C165.781 14.5394 166.426 13.8597 167.25 13.3839C168.088 12.9081 169.046 12.6703 170.124 12.6703C171.161 12.6703 172.086 12.9013 172.897 13.3635C173.708 13.8257 174.34 14.4782 174.793 15.321C175.245 16.1502 175.471 17.1085 175.471 18.196ZM173.097 17.462C173.083 16.6056 172.784 15.9191 172.199 15.4025C171.613 14.886 170.888 14.6277 170.024 14.6277C169.239 14.6277 168.567 14.886 168.009 15.4025C167.45 15.9055 167.117 16.592 167.011 17.462H173.097Z" fill="white"/>
<path d="M179.984 14.485C180.317 13.9141 180.755 13.4723 181.301 13.1596C181.86 12.8334 182.518 12.6703 183.276 12.6703V15.0763H182.698C181.806 15.0763 181.128 15.3074 180.662 15.7696C180.21 16.2318 179.984 17.0338 179.984 18.1756V24.0888H177.709V12.8538H179.984V14.485Z" fill="white"/>
<path d="M112.196 24.2392C112.154 24.2406 112.113 24.2413 112.073 24.2413C110.522 24.2413 106.611 24.4788 105.456 21.8196C104.395 19.3773 108.353 15.6329 109.005 15.0389C109.063 14.986 109.095 14.9579 109.095 14.9579C109.095 14.9579 108.922 14.8577 112.411 14.751C116.417 17.1842 117.05 19.11 117.05 19.11C118.325 23.0569 113.859 24.1849 112.196 24.2392Z" fill="#1967FC"/>
<g style="mix-blend-mode:multiply" opacity="0.3">
<path d="M112.196 24.2394C112.154 24.2407 112.113 24.2414 112.073 24.2414C110.522 24.2414 106.611 24.479 105.456 21.8198C104.395 19.3775 108.353 15.633 109.005 15.039C109.171 15.0184 109.331 15.0244 109.484 15.0622C109.542 15.0763 101.361 23.3646 112.196 24.2394Z" fill="#1967FC"/>
</g>
<path d="M108.432 12.8718C108.432 12.8718 109.082 11.9955 110.001 12.3186C110.919 12.6413 111.659 12.8834 112.144 12.6528C112.629 12.4223 112.882 12.2396 113.017 12.746C113.152 13.2523 111.315 14.4971 111.315 14.4971C111.315 14.4971 108.508 14.4971 108.432 12.8718Z" fill="#1967FC"/>
<g style="mix-blend-mode:multiply" opacity="0.2">
<path d="M108.432 13.2559C108.432 13.2559 109.082 12.3796 110.001 12.7022C110.919 13.0254 111.659 13.267 112.144 13.0364C112.629 12.8059 112.882 12.6232 113.017 13.1296C113.152 13.6359 111.315 14.8812 111.315 14.8812C111.315 14.8812 108.508 14.8812 108.432 13.2559Z" fill="#1967FC"/>
</g>
<path d="M113.155 14.115C112.895 14.421 112.591 14.6838 112.323 14.7915C111.988 14.9274 111.391 15.0094 110.796 15.0437C110.202 15.0779 109.609 15.0643 109.283 15.0079H109.283C109.202 14.9938 109.139 14.9772 109.095 14.9581C109.095 14.9581 108.043 13.6363 108.029 13.0197C108.023 12.8239 108.123 12.6995 108.393 12.7106C109.515 12.7564 109.542 13.2522 110.307 13.1138C111.072 12.9754 111.634 12.0532 112.143 12.6527C112.654 13.2522 113.203 12.399 113.662 12.6759C113.958 12.8541 113.629 13.5567 113.155 14.115Z" fill="#1967FC"/>
<path d="M109.033 14.8785C109.033 14.8785 111.1 15.3476 112.451 14.7305C112.567 14.8467 112.627 14.884 112.627 14.884C112.627 14.884 111.635 15.6018 108.95 15.0894C108.95 15.0894 109.015 14.9373 109.033 14.8785Z" fill="#1967FC"/>
<g style="mix-blend-mode:multiply" opacity="0.2">
<path d="M113.155 14.1147C112.895 14.4208 112.591 14.6835 112.323 14.7912C111.988 14.9271 111.391 15.0092 110.796 15.0434L109.283 15.0077H109.283C109.202 14.9936 109.138 14.977 109.094 14.9578C109.094 14.9578 108.043 13.636 108.028 13.0194C108.041 13.0088 108.454 12.663 108.949 13.404C109.453 14.157 109.635 14.8129 110.232 14.4968C110.829 14.1807 111.748 12.9399 111.911 13.5243C112.072 14.1087 111.476 14.6709 111.911 14.5783C112.249 14.5058 112.903 14.1046 113.155 14.1147Z" fill="#1967FC"/>
</g>
<g opacity="0.9">
<path fill-rule="evenodd" clip-rule="evenodd" d="M111.329 16.8738C111.456 16.8755 111.56 16.9492 111.562 17.0384L111.566 17.3449C111.821 17.3508 112.076 17.3675 112.332 17.3949C112.52 17.4153 112.707 17.4414 112.892 17.4735C113.004 17.4926 113.081 17.5667 113.072 17.6479L113.027 18.0371C113.015 18.1409 112.872 18.2096 112.734 18.1749C112.611 18.144 112.484 18.1186 112.355 18.0986C112.13 18.064 111.891 18.0466 111.641 18.0466L111.575 18.047L111.587 18.9421C112.261 19.0333 112.757 19.1808 113.08 19.3853C113.401 19.5892 113.567 19.8588 113.576 20.1957C113.586 20.5623 113.419 20.8694 113.071 21.1174C112.719 21.3681 112.22 21.5313 111.567 21.6052L111.572 21.9677C111.573 22.0644 111.467 22.1473 111.334 22.153L111.33 22.1533C111.197 22.1591 111.088 22.0852 111.088 21.9884L111.084 21.6301L110.977 21.6343C110.669 21.6461 110.373 21.6444 110.089 21.6292C109.88 21.6181 109.674 21.5989 109.473 21.5716C109.352 21.5556 109.268 21.4787 109.28 21.39L109.349 20.8573C109.364 20.743 109.525 20.6664 109.677 20.6983C109.854 20.736 110.034 20.7657 110.215 20.7875C110.498 20.821 110.784 20.8356 111.073 20.8312L111.067 19.8058C110.412 19.7335 109.92 19.5952 109.597 19.3918C109.272 19.1877 109.111 18.9112 109.112 18.5642C109.115 18.2076 109.291 17.9235 109.641 17.712C109.986 17.5032 110.474 17.3819 111.102 17.3473L111.099 17.0338C111.098 16.9436 111.201 16.8722 111.329 16.8738ZM111.109 18.0644C110.91 18.0861 110.755 18.1332 110.644 18.2063C110.532 18.2794 110.477 18.3724 110.477 18.4853C110.478 18.5924 110.53 18.6788 110.634 18.7445C110.738 18.8101 110.899 18.8574 111.117 18.8874L111.109 18.0644ZM111.545 19.8563L111.557 20.7948C111.777 20.7805 111.945 20.7314 112.062 20.6484C112.178 20.5658 112.234 20.4566 112.232 20.3208C112.229 20.1971 112.173 20.0981 112.064 20.0238C111.954 19.9494 111.781 19.8935 111.545 19.8563Z" fill="white"/>
</g>
<path d="M14.794 24.2814C11.3617 24.1775 9.46369 23.7657 6.27136 21.8693L2.89447 24.2814C6.47524 26.333 8.55937 27.0465 12.2211 27.1759L10.9347 32L26.0503 24.2814L22.6734 21.8693C20.3152 23.3721 18.5323 23.8572 14.794 24.2814Z" fill="#1967FC"/>
<path d="M16.7236 1.92965C16.7236 2.99536 15.8597 3.8593 14.794 3.8593C13.7283 3.8593 12.8643 2.99536 12.8643 1.92965C12.8643 0.863933 13.7283 0 14.794 0C15.8597 0 16.7236 0.863933 16.7236 1.92965Z" fill="white"/>
<path d="M13.1859 16.7236C13.1859 18.3222 11.89 19.6181 10.2915 19.6181C8.69288 19.6181 7.39699 18.3222 7.39699 16.7236C7.39699 15.125 8.69288 13.8291 10.2915 13.8291C11.89 13.8291 13.1859 15.125 13.1859 16.7236Z" fill="white"/>
<path d="M21.5477 16.402C21.5477 18.0006 20.2518 19.2965 18.6533 19.2965C17.0547 19.2965 15.7588 18.0006 15.7588 16.402C15.7588 14.8034 17.0547 13.5075 18.6533 13.5075C20.2518 13.5075 21.5477 14.8034 21.5477 16.402Z" fill="white"/>
<path d="M5.15 11.4948L1.93392 9.63503V12.8643C0.345311 13.2926 -0.0467184 14.0688 0.00426684 16.2412C0.157404 18.588 0.616957 19.166 1.93392 19.2965V22.191L5.15 20.4221V11.4948Z" fill="#1967FC"/>
<path fill-rule="evenodd" clip-rule="evenodd" d="M7.64393 10.3364L3.76852 8.09536C6.60698 6.40374 9.19374 5.96302 13.8334 6.11055V3.69849H15.6023V6.11055C19.4856 5.86572 21.8949 6.31925 25.1664 8.1228L21.3949 10.3038L19.1399 9.32663C17.7342 10.2423 16.8143 10.5849 14.7982 10.7739C12.6746 10.7546 11.5884 10.5313 9.97412 9.32663L7.64393 10.3364Z" fill="white"/>
<path d="M23.9641 11.4186L24.2857 20.4221L27.1802 22.191V19.2965C28.9595 19.2793 29.3282 18.5057 29.2706 16.2412C29.3065 14.133 28.8485 13.34 27.1802 12.8643V9.5589L23.9641 11.4186Z" fill="#1967FC"/>
<rect x="192" y="6" width="106" height="19" rx="4" fill="#2461F9"/>
<path d="M200.299 17.779H202.829V19H198.759V11.322H200.299V17.779ZM203.412 15.931C203.412 15.315 203.533 14.7687 203.775 14.292C204.024 13.8153 204.358 13.4487 204.776 13.192C205.201 12.9353 205.674 12.807 206.195 12.807C206.649 12.807 207.045 12.8987 207.383 13.082C207.727 13.2653 208.002 13.4963 208.208 13.775V12.906H209.759V19H208.208V18.109C208.01 18.395 207.735 18.6333 207.383 18.824C207.038 19.0073 206.638 19.099 206.184 19.099C205.67 19.099 205.201 18.967 204.776 18.703C204.358 18.439 204.024 18.0687 203.775 17.592C203.533 17.108 203.412 16.5543 203.412 15.931ZM208.208 15.953C208.208 15.579 208.134 15.26 207.988 14.996C207.841 14.7247 207.643 14.5193 207.394 14.38C207.144 14.2333 206.877 14.16 206.591 14.16C206.305 14.16 206.041 14.2297 205.799 14.369C205.557 14.5083 205.359 14.7137 205.205 14.985C205.058 15.249 204.985 15.5643 204.985 15.931C204.985 16.2977 205.058 16.6203 205.205 16.899C205.359 17.1703 205.557 17.3793 205.799 17.526C206.048 17.6727 206.312 17.746 206.591 17.746C206.877 17.746 207.144 17.6763 207.394 17.537C207.643 17.3903 207.841 17.185 207.988 16.921C208.134 16.6497 208.208 16.327 208.208 15.953ZM217.016 12.906V19H215.465V18.23C215.267 18.494 215.007 18.703 214.684 18.857C214.369 19.0037 214.024 19.077 213.65 19.077C213.173 19.077 212.752 18.978 212.385 18.78C212.018 18.5747 211.729 18.2777 211.516 17.889C211.311 17.493 211.208 17.0237 211.208 16.481V12.906H212.748V16.261C212.748 16.745 212.869 17.119 213.111 17.383C213.353 17.6397 213.683 17.768 214.101 17.768C214.526 17.768 214.86 17.6397 215.102 17.383C215.344 17.119 215.465 16.745 215.465 16.261V12.906H217.016ZM221.912 12.818C222.638 12.818 223.225 13.049 223.672 13.511C224.12 13.9657 224.343 14.6037 224.343 15.425V19H222.803V15.634C222.803 15.15 222.682 14.7797 222.44 14.523C222.198 14.259 221.868 14.127 221.45 14.127C221.025 14.127 220.688 14.259 220.438 14.523C220.196 14.7797 220.075 15.15 220.075 15.634V19H218.535V12.906H220.075V13.665C220.281 13.401 220.541 13.1957 220.856 13.049C221.179 12.895 221.531 12.818 221.912 12.818ZM225.412 15.953C225.412 15.3223 225.54 14.7723 225.797 14.303C226.053 13.8263 226.409 13.4597 226.864 13.203C227.318 12.939 227.839 12.807 228.426 12.807C229.181 12.807 229.804 12.9977 230.296 13.379C230.794 13.753 231.128 14.281 231.297 14.963H229.636C229.548 14.699 229.397 14.4937 229.185 14.347C228.979 14.193 228.723 14.116 228.415 14.116C227.975 14.116 227.626 14.2773 227.37 14.6C227.113 14.9153 226.985 15.3663 226.985 15.953C226.985 16.5323 227.113 16.9833 227.37 17.306C227.626 17.6213 227.975 17.779 228.415 17.779C229.038 17.779 229.445 17.5003 229.636 16.943H231.297C231.128 17.603 230.794 18.1273 230.296 18.516C229.797 18.9047 229.174 19.099 228.426 19.099C227.839 19.099 227.318 18.9707 226.864 18.714C226.409 18.45 226.053 18.0833 225.797 17.614C225.54 17.1373 225.412 16.5837 225.412 15.953ZM235.857 12.818C236.319 12.818 236.73 12.9207 237.089 13.126C237.448 13.324 237.727 13.621 237.925 14.017C238.13 14.4057 238.233 14.875 238.233 15.425V19H236.693V15.634C236.693 15.15 236.572 14.7797 236.33 14.523C236.088 14.259 235.758 14.127 235.34 14.127C234.915 14.127 234.577 14.259 234.328 14.523C234.086 14.7797 233.965 15.15 233.965 15.634V19H232.425V10.86H233.965V13.665C234.163 13.401 234.427 13.1957 234.757 13.049C235.087 12.895 235.454 12.818 235.857 12.818ZM248.149 12.906L244.376 21.882H242.737L244.057 18.846L241.615 12.906H243.342L244.915 17.163L246.51 12.906H248.149ZM251.685 19.099C251.098 19.099 250.57 18.9707 250.101 18.714C249.631 18.45 249.261 18.0797 248.99 17.603C248.726 17.1263 248.594 16.5763 248.594 15.953C248.594 15.3297 248.729 14.7797 249.001 14.303C249.279 13.8263 249.657 13.4597 250.134 13.203C250.61 12.939 251.142 12.807 251.729 12.807C252.315 12.807 252.847 12.939 253.324 13.203C253.8 13.4597 254.174 13.8263 254.446 14.303C254.724 14.7797 254.864 15.3297 254.864 15.953C254.864 16.5763 254.721 17.1263 254.435 17.603C254.156 18.0797 253.775 18.45 253.291 18.714C252.814 18.9707 252.279 19.099 251.685 19.099ZM251.685 17.757C251.963 17.757 252.224 17.691 252.466 17.559C252.715 17.4197 252.913 17.2143 253.06 16.943C253.206 16.6717 253.28 16.3417 253.28 15.953C253.28 15.3737 253.126 14.93 252.818 14.622C252.517 14.3067 252.147 14.149 251.707 14.149C251.267 14.149 250.896 14.3067 250.596 14.622C250.302 14.93 250.156 15.3737 250.156 15.953C250.156 16.5323 250.299 16.9797 250.585 17.295C250.878 17.603 251.245 17.757 251.685 17.757ZM261.746 12.906V19H260.195V18.23C259.997 18.494 259.737 18.703 259.414 18.857C259.099 19.0037 258.754 19.077 258.38 19.077C257.904 19.077 257.482 18.978 257.115 18.78C256.749 18.5747 256.459 18.2777 256.246 17.889C256.041 17.493 255.938 17.0237 255.938 16.481V12.906H257.478V16.261C257.478 16.745 257.599 17.119 257.841 17.383C258.083 17.6397 258.413 17.768 258.831 17.768C259.257 17.768 259.59 17.6397 259.832 17.383C260.074 17.119 260.195 16.745 260.195 16.261V12.906H261.746ZM264.806 13.852C265.004 13.5293 265.261 13.2763 265.576 13.093C265.899 12.9097 266.265 12.818 266.676 12.818V14.435H266.269C265.785 14.435 265.418 14.5487 265.169 14.776C264.927 15.0033 264.806 15.3993 264.806 15.964V19H263.266V12.906H264.806V13.852ZM275.68 13.632C275.504 13.3093 275.262 13.0637 274.954 12.895C274.646 12.7263 274.287 12.642 273.876 12.642C273.422 12.642 273.018 12.7447 272.666 12.95C272.314 13.1553 272.039 13.4487 271.841 13.83C271.643 14.2113 271.544 14.6513 271.544 15.15C271.544 15.6633 271.643 16.1107 271.841 16.492C272.047 16.8733 272.329 17.1667 272.688 17.372C273.048 17.5773 273.466 17.68 273.942 17.68C274.529 17.68 275.009 17.526 275.383 17.218C275.757 16.9027 276.003 16.4663 276.12 15.909H273.48V14.732H277.638V16.074C277.536 16.6093 277.316 17.1043 276.978 17.559C276.641 18.0137 276.205 18.3803 275.669 18.659C275.141 18.9303 274.547 19.066 273.887 19.066C273.147 19.066 272.476 18.901 271.874 18.571C271.28 18.2337 270.811 17.768 270.466 17.174C270.129 16.58 269.96 15.9053 269.96 15.15C269.96 14.3947 270.129 13.72 270.466 13.126C270.811 12.5247 271.28 12.059 271.874 11.729C272.476 11.3917 273.143 11.223 273.876 11.223C274.742 11.223 275.493 11.4357 276.131 11.861C276.769 12.279 277.209 12.8693 277.451 13.632H275.68ZM284.377 13.698C284.377 14.1087 284.278 14.4937 284.08 14.853C283.889 15.2123 283.585 15.502 283.167 15.722C282.756 15.942 282.235 16.052 281.605 16.052H280.318V19H278.778V11.322H281.605C282.199 11.322 282.705 11.4247 283.123 11.63C283.541 11.8353 283.852 12.1177 284.058 12.477C284.27 12.8363 284.377 13.2433 284.377 13.698ZM281.539 14.809C281.964 14.809 282.279 14.7137 282.485 14.523C282.69 14.325 282.793 14.05 282.793 13.698C282.793 12.95 282.375 12.576 281.539 12.576H280.318V14.809H281.539ZM290.695 11.322V12.565H288.649V19H287.109V12.565H285.063V11.322H290.695Z" fill="white"/>
</svg>
