<svg width="253" height="28" viewBox="0 0 253 28" fill="none" xmlns="http://www.w3.org/2000/svg">
<rect x="147" y="4" width="106" height="19" rx="4" fill="#2461F9"/>
<path d="M155.299 15.779H157.829V17H153.759V9.322H155.299V15.779ZM158.412 13.931C158.412 13.315 158.533 12.7687 158.775 12.292C159.024 11.8153 159.358 11.4487 159.776 11.192C160.201 10.9353 160.674 10.807 161.195 10.807C161.649 10.807 162.045 10.8987 162.383 11.082C162.727 11.2653 163.002 11.4963 163.208 11.775V10.906H164.759V17H163.208V16.109C163.01 16.395 162.735 16.6333 162.383 16.824C162.038 17.0073 161.638 17.099 161.184 17.099C160.67 17.099 160.201 16.967 159.776 16.703C159.358 16.439 159.024 16.0687 158.775 15.592C158.533 15.108 158.412 14.5543 158.412 13.931ZM163.208 13.953C163.208 13.579 163.134 13.26 162.988 12.996C162.841 12.7247 162.643 12.5193 162.394 12.38C162.144 12.2333 161.877 12.16 161.591 12.16C161.305 12.16 161.041 12.2297 160.799 12.369C160.557 12.5083 160.359 12.7137 160.205 12.985C160.058 13.249 159.985 13.5643 159.985 13.931C159.985 14.2977 160.058 14.6203 160.205 14.899C160.359 15.1703 160.557 15.3793 160.799 15.526C161.048 15.6727 161.312 15.746 161.591 15.746C161.877 15.746 162.144 15.6763 162.394 15.537C162.643 15.3903 162.841 15.185 162.988 14.921C163.134 14.6497 163.208 14.327 163.208 13.953ZM172.016 10.906V17H170.465V16.23C170.267 16.494 170.007 16.703 169.684 16.857C169.369 17.0037 169.024 17.077 168.65 17.077C168.173 17.077 167.752 16.978 167.385 16.78C167.018 16.5747 166.729 16.2777 166.516 15.889C166.311 15.493 166.208 15.0237 166.208 14.481V10.906H167.748V14.261C167.748 14.745 167.869 15.119 168.111 15.383C168.353 15.6397 168.683 15.768 169.101 15.768C169.526 15.768 169.86 15.6397 170.102 15.383C170.344 15.119 170.465 14.745 170.465 14.261V10.906H172.016ZM176.912 10.818C177.638 10.818 178.225 11.049 178.672 11.511C179.12 11.9657 179.343 12.6037 179.343 13.425V17H177.803V13.634C177.803 13.15 177.682 12.7797 177.44 12.523C177.198 12.259 176.868 12.127 176.45 12.127C176.025 12.127 175.688 12.259 175.438 12.523C175.196 12.7797 175.075 13.15 175.075 13.634V17H173.535V10.906H175.075V11.665C175.281 11.401 175.541 11.1957 175.856 11.049C176.179 10.895 176.531 10.818 176.912 10.818ZM180.412 13.953C180.412 13.3223 180.54 12.7723 180.797 12.303C181.053 11.8263 181.409 11.4597 181.864 11.203C182.318 10.939 182.839 10.807 183.426 10.807C184.181 10.807 184.804 10.9977 185.296 11.379C185.794 11.753 186.128 12.281 186.297 12.963H184.636C184.548 12.699 184.397 12.4937 184.185 12.347C183.979 12.193 183.723 12.116 183.415 12.116C182.975 12.116 182.626 12.2773 182.37 12.6C182.113 12.9153 181.985 13.3663 181.985 13.953C181.985 14.5323 182.113 14.9833 182.37 15.306C182.626 15.6213 182.975 15.779 183.415 15.779C184.038 15.779 184.445 15.5003 184.636 14.943H186.297C186.128 15.603 185.794 16.1273 185.296 16.516C184.797 16.9047 184.174 17.099 183.426 17.099C182.839 17.099 182.318 16.9707 181.864 16.714C181.409 16.45 181.053 16.0833 180.797 15.614C180.54 15.1373 180.412 14.5837 180.412 13.953ZM190.857 10.818C191.319 10.818 191.73 10.9207 192.089 11.126C192.448 11.324 192.727 11.621 192.925 12.017C193.13 12.4057 193.233 12.875 193.233 13.425V17H191.693V13.634C191.693 13.15 191.572 12.7797 191.33 12.523C191.088 12.259 190.758 12.127 190.34 12.127C189.915 12.127 189.577 12.259 189.328 12.523C189.086 12.7797 188.965 13.15 188.965 13.634V17H187.425V8.86H188.965V11.665C189.163 11.401 189.427 11.1957 189.757 11.049C190.087 10.895 190.454 10.818 190.857 10.818ZM203.149 10.906L199.376 19.882H197.737L199.057 16.846L196.615 10.906H198.342L199.915 15.163L201.51 10.906H203.149ZM206.685 17.099C206.098 17.099 205.57 16.9707 205.101 16.714C204.631 16.45 204.261 16.0797 203.99 15.603C203.726 15.1263 203.594 14.5763 203.594 13.953C203.594 13.3297 203.729 12.7797 204.001 12.303C204.279 11.8263 204.657 11.4597 205.134 11.203C205.61 10.939 206.142 10.807 206.729 10.807C207.315 10.807 207.847 10.939 208.324 11.203C208.8 11.4597 209.174 11.8263 209.446 12.303C209.724 12.7797 209.864 13.3297 209.864 13.953C209.864 14.5763 209.721 15.1263 209.435 15.603C209.156 16.0797 208.775 16.45 208.291 16.714C207.814 16.9707 207.279 17.099 206.685 17.099ZM206.685 15.757C206.963 15.757 207.224 15.691 207.466 15.559C207.715 15.4197 207.913 15.2143 208.06 14.943C208.206 14.6717 208.28 14.3417 208.28 13.953C208.28 13.3737 208.126 12.93 207.818 12.622C207.517 12.3067 207.147 12.149 206.707 12.149C206.267 12.149 205.896 12.3067 205.596 12.622C205.302 12.93 205.156 13.3737 205.156 13.953C205.156 14.5323 205.299 14.9797 205.585 15.295C205.878 15.603 206.245 15.757 206.685 15.757ZM216.746 10.906V17H215.195V16.23C214.997 16.494 214.737 16.703 214.414 16.857C214.099 17.0037 213.754 17.077 213.38 17.077C212.904 17.077 212.482 16.978 212.115 16.78C211.749 16.5747 211.459 16.2777 211.246 15.889C211.041 15.493 210.938 15.0237 210.938 14.481V10.906H212.478V14.261C212.478 14.745 212.599 15.119 212.841 15.383C213.083 15.6397 213.413 15.768 213.831 15.768C214.257 15.768 214.59 15.6397 214.832 15.383C215.074 15.119 215.195 14.745 215.195 14.261V10.906H216.746ZM219.806 11.852C220.004 11.5293 220.261 11.2763 220.576 11.093C220.899 10.9097 221.265 10.818 221.676 10.818V12.435H221.269C220.785 12.435 220.418 12.5487 220.169 12.776C219.927 13.0033 219.806 13.3993 219.806 13.964V17H218.266V10.906H219.806V11.852ZM230.68 11.632C230.504 11.3093 230.262 11.0637 229.954 10.895C229.646 10.7263 229.287 10.642 228.876 10.642C228.422 10.642 228.018 10.7447 227.666 10.95C227.314 11.1553 227.039 11.4487 226.841 11.83C226.643 12.2113 226.544 12.6513 226.544 13.15C226.544 13.6633 226.643 14.1107 226.841 14.492C227.047 14.8733 227.329 15.1667 227.688 15.372C228.048 15.5773 228.466 15.68 228.942 15.68C229.529 15.68 230.009 15.526 230.383 15.218C230.757 14.9027 231.003 14.4663 231.12 13.909H228.48V12.732H232.638V14.074C232.536 14.6093 232.316 15.1043 231.978 15.559C231.641 16.0137 231.205 16.3803 230.669 16.659C230.141 16.9303 229.547 17.066 228.887 17.066C228.147 17.066 227.476 16.901 226.874 16.571C226.28 16.2337 225.811 15.768 225.466 15.174C225.129 14.58 224.96 13.9053 224.96 13.15C224.96 12.3947 225.129 11.72 225.466 11.126C225.811 10.5247 226.28 10.059 226.874 9.729C227.476 9.39167 228.143 9.223 228.876 9.223C229.742 9.223 230.493 9.43567 231.131 9.861C231.769 10.279 232.209 10.8693 232.451 11.632H230.68ZM239.377 11.698C239.377 12.1087 239.278 12.4937 239.08 12.853C238.889 13.2123 238.585 13.502 238.167 13.722C237.756 13.942 237.235 14.052 236.605 14.052H235.318V17H233.778V9.322H236.605C237.199 9.322 237.705 9.42467 238.123 9.63C238.541 9.83533 238.852 10.1177 239.058 10.477C239.27 10.8363 239.377 11.2433 239.377 11.698ZM236.539 12.809C236.964 12.809 237.279 12.7137 237.485 12.523C237.69 12.325 237.793 12.05 237.793 11.698C237.793 10.95 237.375 10.576 236.539 10.576H235.318V12.809H236.539ZM245.695 9.322V10.565H243.649V17H242.109V10.565H240.063V9.322H245.695Z" fill="white"/>
<path d="M10.716 23.507C10.716 26.5023 9.38425 28 6.72066 28H6.19916V4.14815H10.716V23.507Z" fill="#1967FC"/>
<path d="M0 4.14815H4.65147V17.0762H3.89445C1.83087 17.0762 0.600009 16.2846 0.201872 14.7015C0.0672907 14.1885 0 13.5964 0 12.9252V4.14815Z" fill="white"/>
<path d="M28.8639 16.1268C28.8639 16.6915 28.8282 17.2016 28.7569 17.657H17.4993C17.5885 18.8594 18.0252 19.8249 18.8096 20.5536C19.594 21.2823 20.5566 21.6467 21.6975 21.6467C23.3376 21.6467 24.4963 20.9453 25.1737 19.5426H28.4628C28.0171 20.9271 27.206 22.0657 26.0294 22.9584C24.8707 23.8328 23.4267 24.27 21.6975 24.27C20.2892 24.27 19.0235 23.9512 17.9004 23.3136C16.7952 22.6578 15.9217 21.7469 15.2799 20.581C14.656 19.3968 14.344 18.0305 14.344 16.482C14.344 14.9335 14.647 13.5763 15.2532 12.4104C15.8771 11.2262 16.7417 10.3153 17.8469 9.67773C18.97 9.04011 20.2535 8.72131 21.6975 8.72131C23.088 8.72131 24.327 9.031 25.4144 9.6504C26.5018 10.2698 27.3486 11.1442 27.9547 12.2737C28.5608 13.385 28.8639 14.6694 28.8639 16.1268ZM25.6818 15.143C25.664 13.9953 25.2629 13.0753 24.4785 12.383C23.6941 11.6908 22.7225 11.3446 21.5638 11.3446C20.512 11.3446 19.6118 11.6908 18.8631 12.383C18.1143 13.0571 17.6687 13.9771 17.5261 15.143H25.6818Z" fill="white"/>
<path d="M30.8476 16.4274C30.8476 14.9153 31.1507 13.5763 31.7568 12.4104C32.3807 11.2444 33.2186 10.3427 34.2704 9.70505C35.34 9.04922 36.5165 8.72131 37.8001 8.72131C38.9588 8.72131 39.966 8.95813 40.8217 9.43179C41.6952 9.88723 42.3904 10.4611 42.9074 11.1534V8.96724H45.9825V24.0241H42.9074V21.7833C42.3904 22.4938 41.6863 23.0859 40.7949 23.5595C39.9036 24.0332 38.8875 24.27 37.7466 24.27C36.4809 24.27 35.3221 23.9421 34.2704 23.2863C33.2186 22.6122 32.3807 21.6831 31.7568 20.499C31.1507 19.2966 30.8476 17.9394 30.8476 16.4274ZM42.9074 16.482C42.9074 15.4436 42.6935 14.5418 42.2656 13.7767C41.8556 13.0116 41.3119 12.4286 40.6345 12.0278C39.9571 11.627 39.2262 11.4266 38.4418 11.4266C37.6574 11.4266 36.9265 11.627 36.2491 12.0278C35.5717 12.4104 35.0191 12.9842 34.5912 13.7494C34.1812 14.4963 33.9762 15.3889 33.9762 16.4274C33.9762 17.4658 34.1812 18.3766 34.5912 19.16C35.0191 19.9433 35.5717 20.5445 36.2491 20.9635C36.9444 21.3643 37.6753 21.5647 38.4418 21.5647C39.2262 21.5647 39.9571 21.3643 40.6345 20.9635C41.3119 20.5627 41.8556 19.9798 42.2656 19.2146C42.6935 18.4313 42.9074 17.5204 42.9074 16.482Z" fill="white"/>
<path d="M53.0348 11.1534C53.4805 10.3882 54.0687 9.79614 54.7996 9.37714C55.5484 8.93992 56.4308 8.72131 57.4469 8.72131V11.9458H56.6715C55.4771 11.9458 54.5679 12.2555 53.944 12.8749C53.3379 13.4943 53.0348 14.5692 53.0348 16.0994V24.0241H49.9864V8.96724H53.0348V11.1534Z" fill="white"/>
<path d="M67.6827 8.72131C68.8415 8.72131 69.8754 8.96724 70.7846 9.45912C71.7116 9.95099 72.4335 10.6797 72.9505 11.6452C73.4675 12.6108 73.726 13.7767 73.726 15.143V24.0241H70.7043V15.6076C70.7043 14.2595 70.3746 13.2302 69.715 12.5197C69.0554 11.791 68.1551 11.4266 67.0142 11.4266C65.8733 11.4266 64.9641 11.791 64.2867 12.5197C63.6271 13.2302 63.2973 14.2595 63.2973 15.6076V24.0241H60.249V8.96724H63.2973V10.6888C63.7965 10.0694 64.4293 9.58664 65.1959 9.24051C65.9803 8.89437 66.8092 8.72131 67.6827 8.72131Z" fill="white"/>
<path d="M91.3356 21.2462C88.2704 21.1553 86.5753 20.795 83.7243 19.1357L80.7084 21.2462C83.9064 23.0414 85.7676 23.6657 89.0379 23.7789L87.889 28L101.388 21.2462L98.3725 19.1357C96.2665 20.4506 94.6742 20.875 91.3356 21.2462Z" fill="#1967FC"/>
<path d="M93.0589 1.68844C93.0589 2.62094 92.2874 3.37688 91.3356 3.37688C90.3839 3.37688 89.6123 2.62094 89.6123 1.68844C89.6123 0.755941 90.3839 0 91.3356 0C92.2874 0 93.0589 0.755941 93.0589 1.68844Z" fill="white"/>
<path d="M89.8995 14.6332C89.8995 16.0319 88.7422 17.1658 87.3145 17.1658C85.8869 17.1658 84.7295 16.0319 84.7295 14.6332C84.7295 13.2344 85.8869 12.1005 87.3145 12.1005C88.7422 12.1005 89.8995 13.2344 89.8995 14.6332Z" fill="white"/>
<path d="M97.3673 14.3518C97.3673 15.7505 96.2099 16.8844 94.7823 16.8844C93.3546 16.8844 92.1973 15.7505 92.1973 14.3518C92.1973 12.953 93.3546 11.8191 94.7823 11.8191C96.2099 11.8191 97.3673 12.953 97.3673 14.3518Z" fill="white"/>
<path d="M82.7228 10.0579L79.8506 8.43065V11.2563C78.4318 11.631 78.0817 12.3102 78.1273 14.2111C78.264 16.2645 78.6745 16.7703 79.8506 16.8844V19.4171L82.7228 17.8693V10.0579Z" fill="#1967FC"/>
<path fill-rule="evenodd" clip-rule="evenodd" d="M84.9501 9.04433L81.489 7.08344C84.024 5.60327 86.3342 5.21764 90.4778 5.34673V3.23618H92.0575V5.34673C95.5256 5.13251 97.6773 5.52935 100.599 7.10745L97.2307 9.0158L95.2169 8.1608C93.9615 8.96202 93.1399 9.2618 91.3394 9.42714C89.4428 9.41026 88.4728 9.2149 87.0311 8.1608L84.9501 9.04433Z" fill="white"/>
<path d="M99.5253 9.99129L99.8125 17.8693L102.397 19.4171V16.8844C103.987 16.8694 104.316 16.1924 104.264 14.2111C104.296 12.3663 103.887 11.6725 102.397 11.2563V8.36404L99.5253 9.99129Z" fill="#1967FC"/>
<path fill-rule="evenodd" clip-rule="evenodd" d="M121.598 11.1936C121.598 12.1475 121.364 13.0418 120.896 13.8765C120.445 14.7111 119.725 15.384 118.736 15.895C117.765 16.406 116.533 16.6615 115.041 16.6615H111.997V23.5092H108.355V5.67463H115.041C116.446 5.67463 117.643 5.91311 118.632 6.39006C119.621 6.86701 120.358 7.52282 120.844 8.35748C121.347 9.19214 121.598 10.1375 121.598 11.1936ZM117.123 13.11C116.637 13.5528 115.891 13.7743 114.885 13.7743H111.997V8.58744H114.885C116.863 8.58744 117.851 9.45617 117.851 11.1936C117.851 12.0113 117.609 12.65 117.123 13.11Z" fill="white"/>
<path d="M136.543 5.67463V8.56189H131.704V23.5092H128.061V8.56189H123.222V5.67463H136.543Z" fill="white"/>
</svg>
