<svg width="100" height="100" viewBox="0 0 100 100" fill="none" xmlns="http://www.w3.org/2000/svg">
<path d="M100 50C100 77.6142 77.6142 100 50 100C22.3858 100 0 77.6142 0 50C0 22.3858 22.3858 0 50 0C77.6142 0 100 22.3858 100 50Z" fill="white"/>
<path d="M96.1782 50.3189C96.1782 75.6466 75.6461 96.1787 50.3184 96.1787C24.9907 96.1787 4.4585 75.6466 4.4585 50.3189C4.4585 24.9911 24.9907 4.45898 50.3184 4.45898C75.6461 4.45898 96.1782 24.9911 96.1782 50.3189Z" fill="url(#paint0_linear_6315_7745)"/>
<path fill-rule="evenodd" clip-rule="evenodd" d="M50.0012 82.1648C67.7657 82.1648 82.1668 67.7638 82.1668 49.9992C82.1668 32.2346 67.7657 17.8336 50.0012 17.8336C32.2366 17.8336 17.8356 32.2346 17.8356 49.9992C17.8356 67.7638 32.2366 82.1648 50.0012 82.1648ZM50.0012 86.6234C70.2281 86.6234 86.6254 70.2262 86.6254 49.9992C86.6254 29.7722 70.2281 13.375 50.0012 13.375C29.7742 13.375 13.377 29.7722 13.377 49.9992C13.377 70.2262 29.7742 86.6234 50.0012 86.6234Z" fill="white"/>
<path fill-rule="evenodd" clip-rule="evenodd" d="M28.6646 22.4691L32.1936 19.7441L49.8869 42.6584L54.9509 36.512H60.5138L49.8248 49.8733L28.6646 22.4691Z" fill="white"/>
<path fill-rule="evenodd" clip-rule="evenodd" d="M74.337 26.6807L77.8939 29.369L57.6441 56.1611V85.3497H53.1855V54.6657L74.337 26.6807Z" fill="white"/>
<path fill-rule="evenodd" clip-rule="evenodd" d="M42.5418 56.0884L28.0264 36.9404L33.6245 36.9406L47.0004 54.5894V85.9122L42.5418 81.4536V56.0884Z" fill="white"/>
<defs>
<linearGradient id="paint0_linear_6315_7745" x1="50.3184" y1="4.45898" x2="50.3184" y2="96.1787" gradientUnits="userSpaceOnUse">
<stop stop-color="#46475A"/>
<stop offset="1" stop-color="#27283A"/>
</linearGradient>
</defs>
</svg>
