<svg width="24" height="26" viewBox="0 0 24 26" fill="none" xmlns="http://www.w3.org/2000/svg">
<path d="M18.2991 8.77581C15.2653 7.11373 10.396 4.44481 2.84343 0.302521C2.33423 -0.0268778 1.74837 -0.0700449 1.24219 0.0977771L14.2003 12.7906L18.2991 8.77581Z" fill="#32BBFF"/>
<path d="M1.24522 0.0957031C1.15035 0.127179 1.05802 0.16515 0.969732 0.211015C0.410754 0.507189 0 1.0771 0 1.7979V23.7791C0 24.4999 0.410703 25.0699 0.969732 25.366C1.05787 25.4118 1.15014 25.4499 1.24491 25.4816L14.2034 12.7885L1.24522 0.0957031Z" fill="#32BBFF"/>
<path d="M14.2006 12.791L1.24219 25.4841C1.74853 25.6532 2.33439 25.6133 2.84373 25.2791C10.1681 21.2617 14.9825 18.6244 18.0514 16.9481C18.1368 16.9011 18.2205 16.8552 18.3032 16.8097L14.2006 12.791Z" fill="#32BBFF"/>
<path d="M0 12.7891V23.7797C0 24.5005 0.410703 25.0704 0.969732 25.3665C1.05787 25.4123 1.15014 25.4505 1.24491 25.4821L14.2034 12.7891H0Z" fill="#2C9FD9"/>
<path d="M2.84548 0.301166C2.2408 -0.0899359 1.52773 -0.0787944 0.96875 0.211784L14.0057 12.9818L18.3011 8.77445C15.2674 7.11237 10.3981 4.44346 2.84548 0.301166Z" fill="#29CC5E"/>
<path d="M14.0058 12.5977L0.96875 25.3677C1.52778 25.6582 2.2408 25.675 2.84548 25.2783C10.1699 21.2608 14.9843 18.6236 18.0531 16.9473C18.1385 16.9003 18.2223 16.8544 18.305 16.8088L14.0058 12.5977Z" fill="#D93F21"/>
<path d="M23.7074 12.7897C23.7074 12.1807 23.3937 11.566 22.7719 11.2252C22.7719 11.2252 21.609 10.5896 18.0445 8.63672L13.8047 12.7897L18.0486 16.9468C21.574 15.0079 22.7718 14.3542 22.7718 14.3542C23.3937 14.0134 23.7074 13.3987 23.7074 12.7897Z" fill="#FFD500"/>
<path d="M22.7719 14.3516C23.3937 14.0108 23.7074 13.3961 23.7074 12.7871H13.8047L18.0486 16.9442C21.574 15.0054 22.7719 14.3516 22.7719 14.3516Z" fill="#FFAA00"/>
</svg>
