<svg width="140" height="20" viewBox="0 0 140 20" fill="none" xmlns="http://www.w3.org/2000/svg">
<path d="M19.9478 7.28175C19.8839 7.08355 19.763 6.90857 19.6003 6.7786C19.4376 6.64863 19.2402 6.56943 19.0328 6.55087L13.2602 6.02668L10.9776 0.683962C10.8092 0.292428 10.426 0.0390625 10.0001 0.0390625C9.57422 0.0390625 9.19089 0.292467 9.0226 0.684938L6.73997 6.02671L0.9665 6.55087C0.759313 6.56985 0.562253 6.64922 0.39975 6.77914C0.237248 6.90906 0.116451 7.08382 0.052336 7.28175C-0.079347 7.68676 0.0422577 8.13095 0.363164 8.41095L4.72656 12.2376L3.43988 17.9053C3.34574 18.3221 3.50746 18.7529 3.85325 19.0028C4.03908 19.1371 4.25654 19.2054 4.47581 19.2054C4.66488 19.2054 4.85238 19.1545 5.02074 19.0538L10.0001 16.0778L14.9776 19.0538C15.3419 19.2729 15.801 19.2529 16.146 19.0028C16.3149 18.8805 16.4442 18.7113 16.5177 18.5162C16.5912 18.3211 16.6057 18.1086 16.5594 17.9053L15.2728 12.2376L19.6361 8.41174C19.7931 8.27465 19.9063 8.09446 19.9617 7.89357C20.0171 7.69267 20.0123 7.47992 19.9478 7.28175Z" fill="#FFC107"/>
<path d="M49.9478 7.28175C49.8839 7.08355 49.763 6.90857 49.6003 6.7786C49.4376 6.64863 49.2402 6.56943 49.0328 6.55087L43.2602 6.02668L40.9776 0.683962C40.8092 0.292428 40.426 0.0390625 40.0001 0.0390625C39.5742 0.0390625 39.1909 0.292467 39.0226 0.684938L36.74 6.02671L30.9665 6.55087C30.7593 6.56985 30.5623 6.64922 30.3998 6.77914C30.2372 6.90906 30.1165 7.08382 30.0523 7.28175C29.9207 7.68676 30.0423 8.13095 30.3632 8.41095L34.7266 12.2376L33.4399 17.9053C33.3457 18.3221 33.5075 18.7529 33.8533 19.0028C34.0391 19.1371 34.2565 19.2054 34.4758 19.2054C34.6649 19.2054 34.8524 19.1545 35.0207 19.0538L40.0001 16.0778L44.9776 19.0538C45.3419 19.2729 45.801 19.2529 46.146 19.0028C46.3149 18.8805 46.4442 18.7113 46.5177 18.5162C46.5912 18.3211 46.6057 18.1086 46.5594 17.9053L45.2728 12.2376L49.6361 8.41174C49.7931 8.27465 49.9063 8.09446 49.9617 7.89357C50.0171 7.69267 50.0123 7.47992 49.9478 7.28175Z" fill="#FFC107"/>
<path d="M79.9478 7.28175C79.8839 7.08355 79.763 6.90857 79.6003 6.7786C79.4376 6.64863 79.2402 6.56943 79.0328 6.55087L73.2602 6.02668L70.9776 0.683962C70.8092 0.292428 70.426 0.0390625 70.0001 0.0390625C69.5742 0.0390625 69.1909 0.292467 69.0226 0.684938L66.74 6.02671L60.9665 6.55087C60.7593 6.56985 60.5623 6.64922 60.3998 6.77914C60.2372 6.90906 60.1165 7.08382 60.0523 7.28175C59.9207 7.68676 60.0423 8.13095 60.3632 8.41095L64.7266 12.2376L63.4399 17.9053C63.3457 18.3221 63.5075 18.7529 63.8533 19.0028C64.0391 19.1371 64.2565 19.2054 64.4758 19.2054C64.6649 19.2054 64.8524 19.1545 65.0207 19.0538L70.0001 16.0778L74.9776 19.0538C75.3419 19.2729 75.801 19.2529 76.146 19.0028C76.3149 18.8805 76.4442 18.7113 76.5177 18.5162C76.5912 18.3211 76.6057 18.1086 76.5594 17.9053L75.2728 12.2376L79.6361 8.41174C79.7931 8.27465 79.9063 8.09446 79.9617 7.89357C80.0171 7.69267 80.0123 7.47992 79.9478 7.28175Z" fill="#FFC107"/>
<path d="M109.948 7.28175C109.884 7.08355 109.763 6.90857 109.6 6.7786C109.438 6.64863 109.24 6.56943 109.033 6.55087L103.26 6.02668L100.978 0.683962C100.809 0.292428 100.426 0.0390625 100 0.0390625C99.5742 0.0390625 99.1909 0.292467 99.0226 0.684938L96.74 6.02671L90.9665 6.55087C90.7593 6.56985 90.5623 6.64922 90.3998 6.77914C90.2372 6.90906 90.1165 7.08382 90.0523 7.28175C89.9207 7.68676 90.0423 8.13095 90.3632 8.41095L94.7266 12.2376L93.4399 17.9053C93.3457 18.3221 93.5075 18.7529 93.8533 19.0028C94.0391 19.1371 94.2565 19.2054 94.4758 19.2054C94.6649 19.2054 94.8524 19.1545 95.0207 19.0538L100 16.0778L104.978 19.0538C105.342 19.2729 105.801 19.2529 106.146 19.0028C106.315 18.8805 106.444 18.7113 106.518 18.5162C106.591 18.3211 106.606 18.1086 106.559 17.9053L105.273 12.2376L109.636 8.41174C109.793 8.27465 109.906 8.09446 109.962 7.89357C110.017 7.69267 110.012 7.47992 109.948 7.28175Z" fill="#FFC107"/>
<path d="M139.948 7.28175C139.884 7.08355 139.763 6.90857 139.6 6.7786C139.438 6.64863 139.24 6.56943 139.033 6.55087L133.26 6.02668L130.978 0.683962C130.809 0.292428 130.426 0.0390625 130 0.0390625C129.574 0.0390625 129.191 0.292467 129.023 0.684938L126.74 6.02671L120.966 6.55087C120.759 6.56985 120.562 6.64922 120.4 6.77914C120.237 6.90906 120.116 7.08382 120.052 7.28175C119.921 7.68676 120.042 8.13095 120.363 8.41095L124.727 12.2376L123.44 17.9053C123.346 18.3221 123.507 18.7529 123.853 19.0028C124.039 19.1371 124.257 19.2054 124.476 19.2054C124.665 19.2054 124.852 19.1545 125.021 19.0538L130 16.0778L134.978 19.0538C135.342 19.2729 135.801 19.2529 136.146 19.0028C136.315 18.8805 136.444 18.7113 136.518 18.5162C136.591 18.3211 136.606 18.1086 136.559 17.9053L135.273 12.2376L139.636 8.41174C139.793 8.27465 139.906 8.09446 139.962 7.89357C140.017 7.69267 140.012 7.47992 139.948 7.28175Z" fill="#FFC107"/>
</svg>
