<svg width="313" height="110" viewBox="0 0 313 110" fill="none" xmlns="http://www.w3.org/2000/svg">
<g filter="url(#filter0_d_5856_6332)">
<rect x="4.63281" y="4.80664" width="301.604" height="98.9502" rx="10" fill="#212024"/>
<rect x="5.13281" y="5.30664" width="300.604" height="97.9502" rx="9.5" stroke="url(#paint0_linear_5856_6332)" stroke-opacity="0.3"/>
</g>
<g clip-path="url(#clip0_5856_6332)">
<mask id="mask0_5856_6332" style="mask-type:luminance" maskUnits="userSpaceOnUse" x="70" y="23" width="171" height="61">
<path d="M240.442 23.9844H70.9453V83.9014H240.442V23.9844Z" fill="white"/>
</mask>
<g mask="url(#mask0_5856_6332)">
<path d="M97.8683 66.7761C109.62 66.7761 119.236 57.1534 119.236 45.3793C119.236 40.4634 117.743 36.175 114.966 32.5441C117.534 30.6166 119.236 27.4041 119.236 23.9824H97.8683C86.1164 23.9824 76.5 33.605 76.5 45.3793C76.5 57.1534 86.1164 66.7761 97.8683 66.7761ZM97.8683 33.8292C104.274 33.8292 109.411 38.9692 109.411 45.3793C109.411 51.8043 104.289 56.9294 97.8683 56.9294C91.4473 56.9294 86.3255 51.8043 86.3255 45.3793C86.3255 38.9542 91.4622 33.8292 97.8683 33.8292Z" fill="#00DF9B"/>
<path d="M125.224 72.556C123.94 69.3434 121.372 66.9976 117.952 65.9219C112.397 71.271 105.14 74.0501 98.0924 74.0501C90.8203 74.0501 83.7722 71.271 78.2174 65.9219C74.7979 66.9976 72.2295 69.3434 70.9453 72.556C78.2174 80.042 88.0428 83.897 97.8683 83.897C107.709 83.897 117.534 80.042 125.224 72.556Z" fill="#2471FE"/>
<path d="M238.902 31.6484H232.347C231.496 31.6484 230.809 32.3358 230.809 33.1874V40.5688C228.913 39.7619 226.837 39.3136 224.642 39.3136C215.936 39.3136 208.844 46.3961 208.844 55.1222V57.3038C208.844 66.0148 215.922 73.1124 224.642 73.1124C226.837 73.1124 228.928 72.6639 230.839 71.8422C230.973 72.5595 231.601 73.1124 232.347 73.1124H238.902C239.754 73.1124 240.441 72.425 240.441 71.5732V33.2024C240.441 32.3507 239.754 31.6484 238.902 31.6484ZM224.642 63.4747C221.238 63.4747 218.475 60.7104 218.475 57.3038V55.1222C218.475 51.7154 221.238 48.9511 224.642 48.9511C228.047 48.9511 230.809 51.7154 230.809 55.1222V57.3038C230.809 60.7104 228.047 63.4747 224.642 63.4747Z" fill="white"/>
<path d="M201.179 73.1015H194.624C193.773 73.1015 193.086 72.4141 193.086 71.5624V46.3105C193.086 45.4588 193.773 44.7715 194.624 44.7715H201.179C202.03 44.7715 202.717 45.4588 202.717 46.3105V71.5774C202.717 72.4141 202.03 73.1015 201.179 73.1015Z" fill="white"/>
<path d="M169.629 31.6484H163.074C162.223 31.6484 161.536 32.3358 161.536 33.1874V40.5688C159.639 39.7619 157.564 39.3136 155.369 39.3136C146.663 39.3136 139.57 46.3961 139.57 55.1222V57.3038C139.57 66.0148 146.648 73.1124 155.369 73.1124C157.564 73.1124 159.654 72.6639 161.566 71.8422C161.7 72.5595 162.327 73.1124 163.074 73.1124H169.629C170.48 73.1124 171.167 72.425 171.167 71.5732V57.3038V55.1222V33.2024C171.167 32.3507 170.48 31.6484 169.629 31.6484ZM155.369 63.4747C151.964 63.4747 149.202 60.7104 149.202 57.3038V55.1222C149.202 51.7154 151.964 48.9511 155.369 48.9511C158.773 48.9511 161.536 51.7154 161.536 55.1222V57.3038C161.536 60.7104 158.773 63.4747 155.369 63.4747Z" fill="white"/>
<path d="M185.414 73.0986H178.858C178.007 73.0986 177.32 72.4112 177.32 71.5595V65C177.32 64.1483 178.007 63.4609 178.858 63.4609H185.414C186.265 63.4609 186.952 64.1483 186.952 65V71.5595C186.952 72.4112 186.265 73.0986 185.414 73.0986Z" fill="white"/>
<path d="M201.179 41.2867H194.624C193.773 41.2867 193.086 40.5993 193.086 39.7476V33.2031C193.086 32.3514 193.773 31.6641 194.624 31.6641H201.179C202.03 31.6641 202.717 32.3514 202.717 33.2031V39.7626C202.717 40.5993 202.03 41.2867 201.179 41.2867Z" fill="white"/>
</g>
</g>
<defs>
<filter id="filter0_d_5856_6332" x="0.632812" y="0.806641" width="311.602" height="108.949" filterUnits="userSpaceOnUse" color-interpolation-filters="sRGB">
<feFlood flood-opacity="0" result="BackgroundImageFix"/>
<feColorMatrix in="SourceAlpha" type="matrix" values="0 0 0 0 0 0 0 0 0 0 0 0 0 0 0 0 0 0 127 0" result="hardAlpha"/>
<feOffset dx="1" dy="1"/>
<feGaussianBlur stdDeviation="2.5"/>
<feComposite in2="hardAlpha" operator="out"/>
<feColorMatrix type="matrix" values="0 0 0 0 1 0 0 0 0 1 0 0 0 0 1 0 0 0 0.06 0"/>
<feBlend mode="normal" in2="BackgroundImageFix" result="effect1_dropShadow_5856_6332"/>
<feBlend mode="normal" in="SourceGraphic" in2="effect1_dropShadow_5856_6332" result="shape"/>
</filter>
<linearGradient id="paint0_linear_5856_6332" x1="4.63281" y1="4.80664" x2="32.7044" y2="154.911" gradientUnits="userSpaceOnUse">
<stop stop-color="#7E7E7E"/>
<stop offset="1" stop-color="#D3D3D3"/>
</linearGradient>
<clipPath id="clip0_5856_6332">
<rect width="170.415" height="62.2184" fill="white" transform="translate(70.9453 23.4727)"/>
</clipPath>
</defs>
</svg>
