<svg width="312" height="110" viewBox="0 0 312 110" fill="none" xmlns="http://www.w3.org/2000/svg">
<g filter="url(#filter0_d_5856_6279)">
<rect x="4.10156" y="4.10352" width="301.604" height="98.9502" rx="10" fill="#212024"/>
<rect x="4.60156" y="4.60352" width="300.604" height="97.9502" rx="9.5" stroke="url(#paint0_linear_5856_6279)" stroke-opacity="0.3"/>
</g>
<g clip-path="url(#clip0_5856_6279)">
<mask id="mask0_5856_6279" style="mask-type:alpha" maskUnits="userSpaceOnUse" x="53" y="29" width="64" height="56">
<path d="M71.715 51.5951L71.2666 53.0779C70.7285 54.8851 69.1141 56.1362 67.2308 56.1362C64.4057 56.1362 62.3878 53.3096 63.195 50.5293L63.6434 49.0465C64.1815 47.2394 65.7958 45.9883 67.6792 45.9883C70.5043 45.9883 72.5221 48.8149 71.715 51.5951Z" fill="black"/>
<path d="M116.326 51.0867C116.326 62.8564 107.088 72.4018 95.6981 72.4018H80.0484L77.6717 83.0593C77.4475 84.1253 76.5058 84.8665 75.4744 84.8665H74.3983C70.8109 84.8665 68.1203 81.3914 68.9275 77.7769L70.1383 72.4018L71.7525 65.0807C72.1113 63.3661 73.5911 62.1613 75.2503 62.1613H89.5998C90.9002 62.1613 92.0661 61.3273 92.4697 60.0762C92.5593 59.7518 92.6042 59.4274 92.6042 59.1494C92.6042 57.5276 91.3486 56.1375 89.6894 56.1375H79.869C77.4924 56.1375 75.5641 54.3767 75.1157 52.1988C74.9812 51.5037 74.9364 50.7623 75.1157 50.0209V49.9746V49.8819C75.6538 47.5651 77.6269 45.9433 79.9138 45.9433H93.232C94.4876 45.9433 95.6981 45.1555 96.1021 43.9044C96.1914 43.58 96.2812 43.2557 96.2812 42.885C96.2812 41.2631 95.0257 39.873 93.3665 39.873H58.7932C55.4748 39.9657 53.0982 36.6294 54.0847 33.3858C54.7125 31.2079 56.6407 29.7715 58.7932 29.7715H95.6981C107.088 29.7715 116.326 39.317 116.326 51.0867Z" fill="white"/>
</mask>
<g mask="url(#mask0_5856_6279)">
<path d="M42.7578 103.231V28.2402H122.734V103.231H42.7578Z" fill="url(#paint1_radial_5856_6279)"/>
</g>
<path d="M134.212 56.2297V72.3261H127.977V34.7895C127.977 33.03 129.376 31.5963 131.094 31.5963C132.812 31.5963 134.212 33.03 134.212 34.7895V35.3109C136.121 32.7041 139.302 31.0098 143.055 31.0098C149.927 31.0098 156.48 36.2884 156.48 45.5422C156.48 54.7309 149.673 60.0095 143.119 60.0095C139.366 60.0747 136.121 58.7062 134.212 56.2297ZM150.309 45.477C150.309 40.6546 146.746 36.8749 142.101 36.8749C137.329 36.8749 133.894 40.7849 134.021 45.6726C134.148 50.4298 137.965 54.4051 142.61 54.1444C146.937 53.8837 150.309 50.1691 150.309 45.477Z" fill="white"/>
<path d="M159.094 26.026V59.4869H165.456V26.026C165.456 24.2664 164.056 22.7676 162.275 22.7676C160.493 22.7676 159.094 24.2664 159.094 26.026Z" fill="white"/>
<path d="M168.188 45.6074C168.188 37.4614 174.359 31.0098 182.312 31.0098C190.393 31.0098 196.31 37.1356 196.31 45.3467V47.7579H174.168C175.059 51.7332 178.05 54.3399 182.567 54.3399C186.13 54.3399 188.802 52.45 190.138 49.4523L195.292 52.5152C192.938 57.0769 188.739 60.0747 182.567 60.0747C173.978 60.0747 168.188 53.6882 168.188 45.6074ZM174.486 42.4142H189.947C188.993 38.6344 186.193 36.6794 182.312 36.6794C178.559 36.6794 175.632 39.0254 174.486 42.4142Z" fill="white"/>
<path d="M199.109 31.5955H205.345V35.0494C207.19 32.6383 209.926 31.0742 213.489 31.0742C220.36 31.0742 224.305 35.4405 224.305 42.9999V56.2942C224.305 58.1189 222.905 59.5526 221.123 59.5526C219.342 59.5526 217.942 58.1189 217.942 56.2942V43.6516C217.942 39.2854 215.906 36.6135 211.771 36.6135C208.208 36.6135 205.408 39.2854 205.408 44.173V59.4874H199.109V31.5955Z" fill="white"/>
<path d="M227.047 45.6067C227.047 36.3528 233.664 31.0742 240.536 31.0742C244.098 31.0742 247.28 32.5731 249.315 34.9843V34.854C249.315 33.0944 250.715 31.6607 252.433 31.6607C254.151 31.6607 255.551 33.0944 255.551 34.854V59.5526H249.252V55.9032C247.28 58.5099 243.971 60.0739 240.408 60.0739C233.918 60.0739 227.047 54.7302 227.047 45.6067ZM249.634 46.0628C249.952 41.0449 246.389 36.9393 241.49 36.9393C236.845 36.9393 233.219 40.7191 233.219 45.5415C233.219 50.2988 236.718 54.0785 241.235 54.2088C245.753 54.274 249.379 50.6246 249.634 46.0628Z" fill="white"/>
<path d="M185.613 63.6797V64.9213H181.767V67.6585H184.766V68.9004H181.767V72.9591H180.281V63.6797H185.613Z" fill="white"/>
<path d="M192.198 63.6797V72.9591H190.711V63.6797H192.198Z" fill="white"/>
<path d="M205.318 72.9587H203.832L199.361 66.0294V72.9587H197.875V63.666H199.361L203.832 70.5821V63.666H205.318V72.9587Z" fill="white"/>
<path d="M216.457 71.0629H212.664L212.012 72.9587H210.461L213.707 63.666H215.427L218.673 72.9587H217.109L216.457 71.0629ZM216.04 69.821L214.567 65.5086L213.081 69.821H216.04Z" fill="white"/>
<path d="M231.248 72.9587H229.762L225.291 66.0294V72.9587H223.805V63.666H225.291L229.762 70.5821V63.666H231.248V72.9587Z" fill="white"/>
<path d="M236.43 68.3003C236.43 67.3925 236.634 66.5779 237.042 65.8569C237.46 65.1362 238.02 64.5754 238.724 64.1749C239.436 63.7653 240.214 63.5605 241.057 63.5605C242.022 63.5605 242.878 63.8053 243.626 64.2948C244.382 64.7757 244.929 65.4609 245.268 66.3509H243.482C243.247 65.8614 242.921 65.4967 242.504 65.2561C242.087 65.0159 241.605 64.8956 241.057 64.8956C240.458 64.8956 239.923 65.0336 239.454 65.3097C238.985 65.5857 238.615 65.9817 238.346 66.498C238.085 67.0143 237.955 67.615 237.955 68.3003C237.955 68.9859 238.085 69.5867 238.346 70.103C238.615 70.6192 238.985 71.0198 239.454 71.3045C239.923 71.5805 240.458 71.7186 241.057 71.7186C241.605 71.7186 242.087 71.5983 242.504 71.358C242.921 71.1178 243.247 70.7527 243.482 70.2632H245.268C244.929 71.1533 244.382 71.8385 243.626 72.3193C242.878 72.8002 242.022 73.0404 241.057 73.0404C240.206 73.0404 239.428 72.8402 238.724 72.4397C238.02 72.0301 237.46 71.4648 237.042 70.7437C236.634 70.0226 236.43 69.2084 236.43 68.3003Z" fill="white"/>
<path d="M252.22 64.9078V67.6314H255.349V68.8733H252.22V71.7172H255.74V72.9587H250.734V63.666H255.74V64.9078H252.22Z" fill="white"/>
</g>
<defs>
<filter id="filter0_d_5856_6279" x="0.101562" y="0.103516" width="311.602" height="108.949" filterUnits="userSpaceOnUse" color-interpolation-filters="sRGB">
<feFlood flood-opacity="0" result="BackgroundImageFix"/>
<feColorMatrix in="SourceAlpha" type="matrix" values="0 0 0 0 0 0 0 0 0 0 0 0 0 0 0 0 0 0 127 0" result="hardAlpha"/>
<feOffset dx="1" dy="1"/>
<feGaussianBlur stdDeviation="2.5"/>
<feComposite in2="hardAlpha" operator="out"/>
<feColorMatrix type="matrix" values="0 0 0 0 1 0 0 0 0 1 0 0 0 0 1 0 0 0 0.06 0"/>
<feBlend mode="normal" in2="BackgroundImageFix" result="effect1_dropShadow_5856_6279"/>
<feBlend mode="normal" in="SourceGraphic" in2="effect1_dropShadow_5856_6279" result="shape"/>
</filter>
<linearGradient id="paint0_linear_5856_6279" x1="4.10156" y1="4.10352" x2="32.1731" y2="154.208" gradientUnits="userSpaceOnUse">
<stop stop-color="#7E7E7E"/>
<stop offset="1" stop-color="#D3D3D3"/>
</linearGradient>
<radialGradient id="paint1_radial_5856_6279" cx="0" cy="0" r="1" gradientUnits="userSpaceOnUse" gradientTransform="translate(56.5064 69.7693) rotate(-36.3256) scale(56.8168 52.0882)">
<stop stop-color="#85EAFF"/>
<stop offset="0.706211" stop-color="#DADADA"/>
<stop offset="1" stop-color="#FFCB80"/>
</radialGradient>
<clipPath id="clip0_5856_6279">
<rect width="202.183" height="62.2184" fill="white" transform="translate(53.8594 22.7676)"/>
</clipPath>
</defs>
</svg>
