<svg width="312" height="110" viewBox="0 0 312 110" fill="none" xmlns="http://www.w3.org/2000/svg">
<g filter="url(#filter0_d_5856_6268)">
<rect x="4.02344" y="4.10352" width="301.604" height="98.9502" rx="10" fill="#212024"/>
<rect x="4.52344" y="4.60352" width="300.604" height="97.9502" rx="9.5" stroke="url(#paint0_linear_5856_6268)" stroke-opacity="0.3"/>
</g>
<g clip-path="url(#clip0_5856_6268)">
<mask id="mask0_5856_6268" style="mask-type:luminance" maskUnits="userSpaceOnUse" x="54" y="36" width="202" height="34">
<path d="M54.1094 36.8262H255.776V69.5499H54.1094V36.8262Z" fill="white"/>
</mask>
<g mask="url(#mask0_5856_6268)">
<path d="M62.541 51.7693L54.1255 69.031C54.1056 69.0847 54.0924 69.1405 54.086 69.1974C54.0843 69.2902 54.1185 69.38 54.1814 69.4482C54.2124 69.4813 54.2498 69.5078 54.2912 69.5263C54.3326 69.5448 54.3772 69.5549 54.4226 69.556H65.705L69.9904 53.1737L80.1896 45.1973L62.541 51.7693Z" fill="white"/>
<path d="M96.5148 64.3727C96.5148 64.3048 96.4959 64.2382 96.4603 64.1805C96.4249 64.1231 96.3738 64.0772 96.3131 64.0482L78.7763 56.1345L92.6204 41.9229C93.0292 41.5071 93.3099 40.9739 93.4244 40.3945C93.5383 39.814 93.4815 39.213 93.2608 38.6642C93.043 38.1204 92.6688 37.6535 92.1857 37.3225C91.7095 36.9964 91.1453 36.8233 90.5683 36.8262H90.2767L56.0547 38.8005L60.8906 47.7014C60.952 47.8247 61.0522 47.9244 61.1759 47.985C61.2995 48.0456 61.4396 48.0638 61.5746 48.0368L86.7244 41.3462L72.9688 57.5089C72.8861 57.6086 72.8347 57.7304 72.8209 57.8592C72.8071 57.988 72.8315 58.118 72.8911 58.2329C72.9298 58.3089 72.9831 58.3766 73.0478 58.432L85.1083 68.8218L96.2899 64.7177C96.3588 64.6918 96.4176 64.6445 96.4575 64.5827C96.4984 64.52 96.5175 64.4463 96.5148 64.3727ZM114.214 54.062C114.984 54.0447 115.743 53.8712 116.444 53.5521C117.151 53.23 117.786 52.7702 118.312 52.1995C118.845 51.624 119.26 50.9495 119.533 50.2143C119.81 49.4737 119.941 48.6867 119.92 47.8964C119.847 45.2648 118.646 41.218 111.377 41.218H102.787V61.5435H107.392V54.4084H109.637L115.27 61.5435H120.543L114.212 54.0607L114.214 54.062ZM107.392 51.0665V44.8149H111.662C111.662 44.8149 115.326 44.699 115.326 47.9263C115.326 47.9263 115.476 51.0665 111.662 51.0665H107.392ZM129.002 46.4715C129.002 46.4715 121.276 46.4715 121.276 54.2352C121.276 54.2352 121.148 62.0003 129.002 62.0003C133.687 62.0003 135.51 59.6551 136.223 57.7734L132.706 56.8626C132.706 56.8626 131.948 58.8479 129.019 58.8479C126.09 58.8479 125.53 55.4828 125.53 55.4828H136.682C136.682 55.4828 137.839 46.4715 129.002 46.4715ZM125.491 52.8213C125.491 52.8213 125.777 49.5953 129.02 49.5953C132.263 49.5953 132.542 52.8213 132.542 52.8213H125.491ZM163.314 46.4715C163.314 46.4715 155.588 46.4715 155.588 54.2352C155.588 54.2352 155.465 62.0003 163.314 62.0003C168.004 62.0003 169.827 59.6551 170.535 57.7734L167.045 56.8626C167.045 56.8626 166.282 58.8479 163.352 58.8479C160.425 58.8479 159.837 55.4828 159.837 55.4828H170.972C170.972 55.4828 172.151 46.4715 163.314 46.4715ZM159.808 52.8213C159.808 52.8213 160.089 49.5953 163.33 49.5953C166.574 49.5953 166.854 52.8213 166.854 52.8213H159.808ZM149.165 53.1744C149.165 50.0275 146.506 50.1202 146.506 50.1202H146.337C143.499 50.1202 143.504 53.3121 143.504 53.3121V61.5435H139.403V46.9269H143.483V48.9831H143.763C144.194 48.2454 144.799 47.6305 145.521 47.1969C146.24 46.7643 147.059 46.5248 147.898 46.5015C150.703 46.5015 153.25 48.5904 153.25 52.5786V61.5435H149.143L149.165 53.1744ZM172.437 41.4157L179.398 61.538H183.336L190.299 41.4157H187.719L181.506 59.5964H181.254L175.011 41.4157H172.437ZM196.779 46.5574C189.148 46.5574 189.346 54.1493 189.346 54.1493C189.346 54.1493 188.98 62.1148 196.723 62.1148C201.165 62.1148 202.961 60.06 203.673 58.1784L201.744 57.1735C201.744 57.1735 200.565 59.9673 196.723 59.9673C192.033 59.9673 191.701 55.1187 191.701 55.1187H204.071C204.071 55.1187 204.89 46.5574 196.779 46.5574ZM191.729 53.034C191.905 51.8122 192.507 50.6919 193.428 49.8707C194.335 49.0622 195.508 48.6145 196.723 48.6122C197.931 48.6122 199.1 49.058 200.016 49.8693C200.938 50.6905 201.54 51.8115 201.715 53.034H191.729ZM237.592 46.5574C229.962 46.5574 230.158 54.1493 230.158 54.1493C230.158 54.1493 229.793 62.1148 237.536 62.1148C241.979 62.1148 243.774 60.06 244.486 58.1784L242.557 57.1735C242.557 57.1735 241.378 59.9673 237.507 59.9673C232.818 59.9673 232.487 55.1187 232.487 55.1187H244.886C244.886 55.1187 245.715 46.5574 237.592 46.5574ZM232.543 53.034C232.719 51.8123 233.32 50.692 234.241 49.8707C235.149 49.0624 236.321 48.6148 237.536 48.6122C238.751 48.6145 239.923 49.0617 240.83 49.8693C241.751 50.691 242.353 51.8118 242.528 53.034H232.543ZM208.924 61.5435V53.7798C208.924 53.7798 208.716 48.9831 212.503 48.9831C213.217 48.9721 213.926 49.1194 214.58 49.4153V47.2105C214.046 46.9505 213.457 46.8237 212.863 46.841C212.225 46.8379 211.595 46.9821 211.022 47.2623C210.185 47.6696 209.472 48.2934 208.958 49.069H208.868V47.1301H206.623V61.5598L208.924 61.5435ZM225.861 51.4428H228.105C228.105 51.4428 228.352 46.5642 222.378 46.5642C216.403 46.5642 216.594 51.0719 216.594 51.0719C216.551 51.9226 216.806 52.7616 217.314 53.4444C217.821 54.122 218.546 54.5897 219.36 54.767C222.378 55.6328 224.718 55.4542 225.665 56.32C226.613 57.1844 226.843 60.1009 222.781 60.1009C218.719 60.1009 218.568 56.6377 218.568 56.6377H216.324C216.324 56.6377 215.987 62.0916 222.204 62.0916C228.42 62.0916 228.375 58.9338 228.375 57.2649C228.375 55.5973 227.426 54.437 225.429 53.728C223.433 53.0176 219.32 53.3694 218.832 51.5519C218.343 49.733 219.786 48.5317 222.344 48.5317C224.902 48.5317 225.861 50.3561 225.861 51.4414V51.4428ZM248.913 41.8084V46.4715H248.392V41.8084H247.269V41.3448H250.074V41.8084H248.913ZM255.269 46.4715V41.9066L253.406 46.4715H252.98L251.129 41.9066V46.4715H250.636V41.3448H251.398L253.21 45.7107L255.028 41.3462H255.796V46.4729L255.269 46.4715Z" fill="white"/>
</g>
</g>
<defs>
<filter id="filter0_d_5856_6268" x="0.0234375" y="0.103516" width="311.602" height="108.949" filterUnits="userSpaceOnUse" color-interpolation-filters="sRGB">
<feFlood flood-opacity="0" result="BackgroundImageFix"/>
<feColorMatrix in="SourceAlpha" type="matrix" values="0 0 0 0 0 0 0 0 0 0 0 0 0 0 0 0 0 0 127 0" result="hardAlpha"/>
<feOffset dx="1" dy="1"/>
<feGaussianBlur stdDeviation="2.5"/>
<feComposite in2="hardAlpha" operator="out"/>
<feColorMatrix type="matrix" values="0 0 0 0 1 0 0 0 0 1 0 0 0 0 1 0 0 0 0.06 0"/>
<feBlend mode="normal" in2="BackgroundImageFix" result="effect1_dropShadow_5856_6268"/>
<feBlend mode="normal" in="SourceGraphic" in2="effect1_dropShadow_5856_6268" result="shape"/>
</filter>
<linearGradient id="paint0_linear_5856_6268" x1="4.02344" y1="4.10352" x2="32.095" y2="154.208" gradientUnits="userSpaceOnUse">
<stop stop-color="#7E7E7E"/>
<stop offset="1" stop-color="#D3D3D3"/>
</linearGradient>
<clipPath id="clip0_5856_6268">
<rect width="201.667" height="32.7237" fill="white" transform="translate(54.1094 36.8262)"/>
</clipPath>
</defs>
</svg>
