<svg width="312" height="110" viewBox="0 0 312 110" fill="none" xmlns="http://www.w3.org/2000/svg">
<g filter="url(#filter0_d_5856_6347)">
<rect x="4.02344" y="4.76172" width="301.604" height="98.9502" rx="10" fill="#212024"/>
<rect x="4.52344" y="5.26172" width="300.604" height="97.9502" rx="9.5" stroke="url(#paint0_linear_5856_6347)" stroke-opacity="0.3"/>
</g>
<g clip-path="url(#clip0_5856_6347)">
<path d="M73.5649 63.3212C73.1991 63.3212 72.9065 63.3212 72.5408 62.9552L67.1276 57.5386C66.9813 57.3922 66.9081 57.319 66.9081 57.1726C66.835 57.0994 66.7618 56.8066 66.835 56.5138C66.835 56.3674 66.9081 56.2942 66.9813 56.221C67.0544 56.1478 67.1276 56.0746 67.2007 56.0014C67.347 55.855 67.4202 55.7086 67.4933 55.6354C68.8101 54.391 70.0536 53.1467 71.3704 51.9755C74.2964 49.1208 77.2224 46.266 80.1485 43.4113C80.1485 43.2649 80.3679 42.3865 81.0263 42.1669C81.2458 42.0938 81.5384 42.0938 81.6847 42.0938C82.0504 42.0938 82.343 42.0938 82.7088 42.4597L88.4146 47.8764C88.634 48.1692 88.8535 48.5352 88.7803 48.9012C88.7072 49.2672 88.3414 49.4868 88.1951 49.56C87.5368 49.926 85.4885 51.9755 81.6115 56.0746C79.2707 58.3437 77.003 60.6129 74.6621 62.8088C74.589 62.882 74.5158 63.1016 74.2964 63.248C74.0769 63.3212 73.8575 63.3212 73.5649 63.3212Z" fill="#AF145B"/>
<path d="M88.3459 37.0419L77.2269 26.2818C75.5444 24.9642 73.4962 23.9395 71.1553 23.9395C68.8145 23.9395 66.4736 24.9642 64.7912 26.6478C64.1328 27.0138 64.1328 27.3066 64.1328 27.6725C64.1328 28.0385 64.1328 28.3313 64.4986 28.6973L79.6409 43.1906C80.0066 43.5566 80.2992 43.5566 80.2992 43.8494C83.6642 47.5825 84.0299 52.9259 80.9576 56.659L88.3459 49.5588C90.0283 48.2412 91.0525 45.8257 91.0525 43.4834C91.0525 41.141 90.0283 38.7255 88.3459 37.0419Z" fill="url(#paint1_linear_5856_6347)"/>
<path d="M75.2497 61.3448C71.8847 57.6117 71.519 52.2683 74.8839 48.5352L67.4957 55.6354C65.8132 57.3189 64.7891 59.6613 64.7891 62.0036C64.7891 64.346 65.8132 66.6883 67.4957 68.3719L83.6621 84.8414C84.0278 85.2074 84.3204 85.2074 84.6862 85.2074C85.052 85.2074 85.3446 85.2074 85.7103 84.8414C87.3928 83.1579 88.4169 80.8155 88.4169 78.4732C88.4169 76.1309 87.3928 73.7885 85.7103 72.105L75.6154 62.0036C75.5423 61.6376 75.2497 61.6376 75.2497 61.3448Z" fill="url(#paint2_linear_5856_6347)"/>
<path d="M118.85 52.1224C119.362 50.8049 120.094 49.8533 121.264 49.1945C122.361 48.5357 123.678 48.2429 124.995 48.2429V54.0256C123.385 53.806 121.995 54.172 120.679 54.9772C119.435 55.7823 118.85 57.1731 118.85 59.1495V68.8116H113.656V48.6089H118.85V52.1224ZM148.476 66.3961C146.428 68.4456 143.868 69.4704 140.868 69.4704C137.869 69.4704 135.382 68.4456 133.261 66.3961C131.213 64.3465 130.188 61.7846 130.188 58.7835C130.188 55.7823 131.213 53.2936 133.261 51.244C135.309 49.1945 137.869 48.0965 140.868 48.0965C143.868 48.0965 146.355 49.1213 148.476 51.244C150.524 53.2936 151.622 55.7823 151.622 58.7835C151.622 61.7846 150.597 64.2733 148.476 66.3961ZM136.991 62.8094C138.015 63.8341 139.332 64.4197 140.942 64.4197C142.551 64.4197 143.794 63.9073 144.892 62.8094C145.916 61.7846 146.501 60.3938 146.501 58.7835C146.501 57.1731 145.989 55.8555 144.892 54.7576C143.868 53.7328 142.551 53.1472 140.942 53.1472C139.332 53.1472 138.089 53.6596 136.991 54.7576C135.967 55.7823 135.455 57.1731 135.455 58.7835C135.455 60.3938 135.967 61.7114 136.991 62.8094ZM172.616 48.6821H177.81V68.8848H172.616V66.6157C171.372 68.5188 169.324 69.4704 166.618 69.4704C164.423 69.4704 162.594 68.7384 161.131 67.2744C159.668 65.8105 159.01 63.7609 159.01 61.1258V48.7553H164.204V60.5402C164.204 61.8578 164.569 62.9558 165.301 63.6877C166.032 64.4197 166.983 64.7125 168.227 64.7125C169.544 64.7125 170.641 64.2733 171.446 63.4681C172.25 62.663 172.689 61.3454 172.689 59.735L172.616 48.6821ZM198.219 53.6596H193.61V62.0774C193.61 62.8094 193.757 63.3217 194.122 63.6145C194.488 63.9073 195 64.1269 195.659 64.2001C196.317 64.2001 197.195 64.2001 198.146 64.1269V68.8848C194.561 69.324 192.001 68.958 190.538 67.86C189.075 66.7621 188.344 64.8589 188.344 62.0774V53.6596H184.832V48.6821H188.344V44.583L193.537 42.9727V48.6089H198.073V53.6596H198.219ZM209.704 60.9062C210.435 63.4681 212.337 64.7125 215.409 64.7125C217.385 64.7125 218.921 64.0537 219.945 62.663L224.114 65.0785C222.139 67.9332 219.213 69.3972 215.336 69.3972C211.971 69.3972 209.338 68.3724 207.29 66.3961C205.241 64.3465 204.29 61.8578 204.29 58.7835C204.29 55.7091 205.315 53.2204 207.29 51.1709C209.265 49.1213 211.825 48.0965 214.971 48.0965C217.897 48.0965 220.384 49.1213 222.286 51.1709C224.188 53.2204 225.212 55.7823 225.212 58.7835C225.212 59.4422 225.139 60.1742 224.992 60.9062H209.704ZM209.631 56.8803H219.945C219.652 55.4895 218.994 54.4648 218.116 53.806C217.165 53.1472 216.141 52.7812 214.971 52.7812C213.581 52.7812 212.41 53.1472 211.532 53.8792C210.508 54.6112 209.923 55.5627 209.631 56.8803ZM238.013 52.1224C238.525 50.8049 239.257 49.8533 240.427 49.1945C241.524 48.5357 242.841 48.2429 244.158 48.2429V54.0256C242.549 53.806 241.159 54.172 239.842 54.9772C238.598 55.7823 238.013 57.1731 238.013 59.1495V68.8116H232.819V48.6089H238.013V52.1224Z" fill="#CB0766"/>
</g>
<defs>
<filter id="filter0_d_5856_6347" x="0.0234375" y="0.761719" width="311.602" height="108.949" filterUnits="userSpaceOnUse" color-interpolation-filters="sRGB">
<feFlood flood-opacity="0" result="BackgroundImageFix"/>
<feColorMatrix in="SourceAlpha" type="matrix" values="0 0 0 0 0 0 0 0 0 0 0 0 0 0 0 0 0 0 127 0" result="hardAlpha"/>
<feOffset dx="1" dy="1"/>
<feGaussianBlur stdDeviation="2.5"/>
<feComposite in2="hardAlpha" operator="out"/>
<feColorMatrix type="matrix" values="0 0 0 0 1 0 0 0 0 1 0 0 0 0 1 0 0 0 0.06 0"/>
<feBlend mode="normal" in2="BackgroundImageFix" result="effect1_dropShadow_5856_6347"/>
<feBlend mode="normal" in="SourceGraphic" in2="effect1_dropShadow_5856_6347" result="shape"/>
</filter>
<linearGradient id="paint0_linear_5856_6347" x1="4.02344" y1="4.76172" x2="32.095" y2="154.866" gradientUnits="userSpaceOnUse">
<stop stop-color="#7E7E7E"/>
<stop offset="1" stop-color="#D3D3D3"/>
</linearGradient>
<linearGradient id="paint1_linear_5856_6347" x1="64.1328" y1="40.2992" x2="91.0525" y2="40.2992" gradientUnits="userSpaceOnUse">
<stop stop-color="#CB0766"/>
<stop offset="1" stop-color="#E04391"/>
</linearGradient>
<linearGradient id="paint2_linear_5856_6347" x1="64.5263" y1="66.8713" x2="88.3069" y2="66.8713" gradientUnits="userSpaceOnUse">
<stop stop-color="#CB0766"/>
<stop offset="1" stop-color="#E04391"/>
</linearGradient>
<clipPath id="clip0_5856_6347">
<rect width="180.684" height="62.2184" fill="white" transform="translate(64.1328 23.4277)"/>
</clipPath>
</defs>
</svg>
