<svg width="295" height="80" viewBox="0 0 295 80" fill="none" xmlns="http://www.w3.org/2000/svg">
<path d="M82.3047 9.6386H95.8728C99.3204 9.6386 101.841 10.5654 103.472 12.1594C105.067 13.5311 105.771 15.3847 105.771 17.2012C105.771 17.9055 105.771 18.7952 105.548 19.4996C105.104 20.6488 104.399 21.798 103.472 22.7248C103.028 23.1696 102.546 23.4291 102.101 23.6516C103.695 24.0964 105.104 25.0232 106.253 26.1724C107.18 27.3216 107.624 28.6933 107.624 30.7693C107.624 31.9185 107.402 33.2901 106.92 34.2169C106.475 35.1437 105.548 36.0705 104.622 36.7378C103.472 37.4421 102.323 37.887 101.174 38.3318C99.8024 38.7767 98.1712 38.7767 96.5772 38.7767H82.5271V9.56445H82.3047V9.6386ZM94.7236 21.5756C95.8728 21.5756 97.022 21.3531 98.1712 20.8712C99.098 20.4264 99.5429 19.4996 99.5429 18.5728C99.5429 17.646 99.098 16.7192 98.3937 16.2744C97.4669 15.57 96.3177 15.3476 95.1685 15.57H88.718V21.7609H94.6865V21.5756H94.7236ZM96.3177 33.3272C97.4669 33.3272 98.6161 33.1048 99.7653 32.6228C100.692 32.178 101.137 31.2512 100.915 30.102C100.915 29.1752 100.47 28.2484 99.7653 27.8036C99.0609 27.3587 97.6893 26.8768 96.0952 26.8768H88.4956V33.3272H96.3177Z" fill="white"/>
<path d="M115.625 9.63867H122.075V39.0733H115.625V9.63867Z" fill="white"/>
<path d="M131.984 9.63867H137.953L151.743 27.8036V9.63867H158.157V39.0733H152.67L138.175 20.4264V39.0733H131.984V9.63867Z" fill="white"/>
<path d="M177.719 9.41797H183.688L196.329 39.0751H189.656L186.913 32.4022H174.494L171.751 39.0751H165.078L177.719 9.41797ZM184.615 26.8786L180.722 17.24L176.83 26.8786H184.615Z" fill="white"/>
<path d="M203.234 9.63867H209.203L222.993 27.8036V9.63867H229.444V39.0733H223.92L209.648 20.4264V39.0733H203.234V9.63867Z" fill="white"/>
<path d="M252.858 39.5158C250.782 39.5158 248.706 39.0709 246.889 38.3666C243.219 36.7725 240.439 33.9921 238.845 30.3221C238.14 28.4685 237.695 26.4296 237.695 24.3536C237.695 20.4611 239.289 16.5315 242.07 13.5658C243.441 12.1942 245.073 11.045 246.889 10.3406C248.965 9.41384 251.041 9.19141 253.08 9.19141C254.229 9.19141 255.601 9.19141 256.75 9.41384C257.899 9.63626 258.826 9.85869 259.753 10.3406C260.68 10.7855 261.606 11.2674 262.274 11.7123C262.978 12.1571 263.868 12.8615 264.572 13.5658L260.68 18.3851C259.53 17.4583 258.381 16.5315 257.232 15.8643C256.083 15.197 254.711 14.9375 253.339 14.9375C252.19 14.9375 251.041 15.1599 249.892 15.6418C248.743 16.0867 247.816 16.791 247.149 17.7178C246.481 18.6446 245.777 19.5714 245.295 20.7206C244.85 21.8698 244.591 23.019 244.591 24.1682C244.591 25.3174 244.813 26.6891 245.295 27.8383C245.777 28.9875 246.222 29.9143 247.149 30.8411C248.743 32.6946 251.041 33.5844 253.339 33.5844C254.711 33.5844 256.342 33.3619 257.714 32.6576C258.863 31.9532 260.235 31.0635 261.162 30.1367L265.276 34.2516C264.572 34.956 263.682 35.8457 262.978 36.5501C262.051 37.2544 261.124 37.6993 260.235 38.1441C259.308 38.589 258.159 39.0709 257.01 39.2934C255.378 39.5158 254.007 39.5158 252.858 39.5158Z" fill="white"/>
<path d="M272.664 9.63867H294.722V15.3847H278.855V21.3532H292.868V27.0993H278.855V33.3273H294.944V39.0733H272.664V9.63867Z" fill="white"/>
<path d="M90.5613 68.0271C88.9673 68.0271 87.3361 67.8047 85.9645 67.1003C84.5928 66.6555 83.2212 65.7287 81.8125 64.5795L84.1109 62.0586C85.0377 62.9854 85.9645 63.4303 87.1137 64.1346C88.2629 64.5795 89.4121 64.839 90.5613 64.839C91.4881 64.839 92.4149 64.6166 93.3046 64.1346C94.009 63.6898 94.2314 62.9854 94.2314 62.2811C94.2314 62.0586 94.2314 61.5767 94.009 61.3543C93.7865 61.1319 93.5641 60.6499 93.3046 60.4275C92.8598 60.2051 92.3778 59.9826 91.933 59.7231C91.2286 59.5007 90.3389 59.2783 89.6346 59.0188C88.7078 58.7963 87.5586 58.5739 86.6318 58.092C85.9274 57.8696 85.0377 57.3876 84.5558 56.9428C84.1109 56.4979 83.629 56.016 83.1841 55.3487C82.7393 54.4219 82.7393 53.4952 82.7393 52.8279C82.7393 51.9011 82.9617 51.2338 83.1841 50.307C83.4066 49.6027 84.1109 48.9354 84.5558 48.4534C85.2601 48.0086 85.9274 47.5267 86.8542 47.3042C87.781 47.0818 88.7078 46.8594 89.5975 46.8594C90.9691 46.8594 92.3408 47.0818 93.7495 47.5637C94.8987 48.0086 96.0479 48.7129 97.1971 49.4173L95.3435 52.1606C94.4168 51.4562 93.49 51.0114 92.6003 50.5665C91.6735 50.1217 90.7467 50.1217 89.857 50.1217C88.9302 50.1217 88.0034 50.3441 87.3361 50.826C86.8913 51.2709 86.4093 51.9752 86.4093 52.6796C86.4093 53.1244 86.4093 53.3839 86.6318 53.8288C86.8542 54.0512 87.0766 54.5331 87.3361 54.7556C87.781 54.978 88.2629 55.2004 88.9302 55.4599C89.6346 55.6824 90.3018 55.9048 91.4511 56.1643C92.3778 56.3867 93.3046 56.6091 94.4538 57.0911C95.1582 57.3135 95.8255 57.7954 96.5298 58.2403C96.9747 58.6851 97.4566 59.3895 97.679 59.8344C97.9015 60.5387 98.1239 61.206 98.1239 62.1328C98.1239 63.0596 97.9015 63.9863 97.679 64.6536C97.2342 65.358 96.7523 66.0253 96.085 66.7296C95.3806 67.1745 94.7133 67.6564 93.7865 67.8788C92.6373 67.8047 91.4881 68.0271 90.5613 68.0271Z" fill="white"/>
<path d="M102.062 47.1152H105.992L112.183 56.7538L118.633 47.1152H122.526V67.801H118.856V52.8613L112.405 62.4998H112.183L105.77 52.8613V67.801H102.062V47.1152Z" fill="white"/>
<path d="M134.942 46.8945H138.39L147.361 67.5803H143.468L141.392 62.5386H131.754L129.678 67.5803H126.008L134.942 46.8945ZM140.243 59.5359L136.573 51.2689L133.126 59.5359H140.243Z" fill="white"/>
<path d="M151.027 47.1152H160.221C161.37 47.1152 162.519 47.3377 163.668 47.5601C164.595 47.7825 165.522 48.4869 166.189 49.1542C166.634 49.599 167.116 50.3034 167.561 51.2301C167.783 51.9345 168.006 52.8242 168.006 53.751C168.006 54.4554 167.783 55.3451 167.561 56.0494C167.339 56.7538 166.857 57.1986 166.634 57.903C166.189 58.3478 165.707 58.8298 165.04 59.2746C164.336 59.7195 163.668 59.979 162.964 60.2014L168.488 68.0235H164.113L159.072 60.9058H154.475V68.0235H150.805L151.027 47.1152ZM159.998 57.2357C161.148 57.2357 162.297 57.0133 163.001 56.3089C163.706 55.6046 164.15 54.7149 164.15 53.7881C164.15 52.8613 163.706 51.9345 163.001 51.2672C162.074 50.5629 160.925 50.3404 159.776 50.3404H154.475V57.2357H159.998Z" fill="white"/>
<path d="M177.47 50.3404H170.797V47.1152H187.59V50.3404H180.917V67.801H177.247L177.47 50.3404Z" fill="white"/>
<path d="M209.889 68.0249C208.518 68.0249 207.146 67.8025 205.737 67.0981C203.216 65.9489 201.14 64.0953 200.214 61.5745C199.769 60.2029 199.287 58.8312 199.509 57.4225C199.509 56.0509 199.732 54.6792 200.214 53.2705C201.14 50.7496 203.216 48.6737 205.737 47.5244C207.109 47.0796 208.48 46.5977 210.112 46.5977C211.038 46.5977 211.965 46.5977 212.632 46.8201C213.337 47.0425 214.004 47.2649 214.708 47.5244C215.413 47.7469 215.858 48.2288 216.562 48.4512C217.007 48.8961 217.711 49.378 218.156 49.8229L215.858 52.5661C215.153 51.8618 214.264 51.1945 213.337 50.7126C212.41 50.2677 211.261 50.0082 210.112 50.0082C209.185 50.0082 208.258 50.2307 207.368 50.4531C206.442 50.8979 205.774 51.3799 205.07 52.0472C204.366 52.7515 203.921 53.4188 203.698 54.3456C203.476 55.2724 203.253 56.1991 203.253 57.0889C203.253 58.0156 203.476 58.9424 203.698 59.8321C203.921 60.7218 204.403 61.4262 205.07 62.1306C205.774 62.8349 206.442 63.2798 207.368 63.7246C208.295 64.1695 209.222 64.429 210.112 64.1695C211.261 64.1695 212.41 63.9471 213.337 63.4651C214.264 63.0203 215.19 62.3159 216.08 61.3891L218.378 63.6876C217.934 64.1324 217.229 64.8368 216.784 65.2816C216.08 65.7265 215.635 66.2084 214.931 66.4308C214.227 66.6533 213.559 67.1352 212.632 67.1352C211.706 68.0249 210.779 68.0249 209.889 68.0249Z" fill="white"/>
<path d="M222.062 47.1152H225.51V55.6046H235.408V47.1152H239.078V67.801H235.408V59.0522H225.51V67.801H222.062V47.1152Z" fill="white"/>
<path d="M251.723 46.8945H255.171L264.142 67.5803H260.25L258.174 62.5386H248.535L246.459 67.5803H242.789L251.723 46.8945ZM256.802 59.5359L253.354 51.2689L249.907 59.5359H256.802Z" fill="white"/>
<path d="M267.805 47.1152H271.512V67.801H267.805V47.1152Z" fill="white"/>
<path d="M277 47.1152H280.225L291.272 61.3506V47.1152H294.943V67.801H291.94L280.707 53.0837V67.801H277V47.1152Z" fill="white"/>
<path d="M41.8536 66.4319V75.4031L34.0315 80L26.4319 75.4031V66.4319L34.0315 71.0287L41.8536 66.4319ZM0 35.4031L7.59963 40V55.3846L20.6858 63.2067V72.1779L0 59.9815V35.4031ZM68.063 35.4031V60.0185L47.1548 72.215V63.2437L60.241 55.4217V40.0371L68.063 35.4031ZM47.1177 23.2067L54.9398 27.8035V36.7748L41.8536 44.5968V60.2039L34.2539 64.8007L26.6914 60.2039V44.5598L13.1233 36.7377V27.7664L20.9453 23.1696L34.0315 30.9917L47.1177 23.2067ZM13.1233 43.1881L20.7229 47.785V56.7563L13.1233 52.1594V43.1881ZM54.9398 43.1881V52.1594L47.3401 56.7563V47.785L54.9398 43.1881ZM7.59963 15.3846L15.4217 19.9815L7.59963 24.5783V33.5496L0 28.9527V19.9815L7.59963 15.3846ZM60.4634 15.3846L68.2854 19.9815V28.9527L60.4634 33.5496V24.5783L52.8638 19.9815L60.4634 15.3846ZM34.0315 15.3846L41.8536 19.9815L34.0315 24.5783L26.4319 19.9815L34.0315 15.3846ZM34.0315 0L54.9398 12.1965L47.3401 16.7933L34.2539 8.97126L20.9083 16.7933L13.3086 12.1965L34.0315 0Z" fill="white"/>
</svg>
