<svg width="79" height="86" viewBox="0 0 79 86" fill="none" xmlns="http://www.w3.org/2000/svg">
<path d="M39.7588 65.2563C30.5347 64.977 25.4337 63.8704 16.8543 58.7739L7.77889 65.2563C17.4022 70.7699 23.0033 72.6874 32.8442 73.0352L29.3869 86L70.01 65.2563L60.9347 58.7739C54.597 62.8125 49.8055 64.1161 39.7588 65.2563Z" fill="#1967FC"/>
<path d="M44.9447 5.18593C44.9447 8.05004 42.6229 10.3719 39.7588 10.3719C36.8947 10.3719 34.5729 8.05004 34.5729 5.18593C34.5729 2.32182 36.8947 0 39.7588 0C42.6229 0 44.9447 2.32182 44.9447 5.18593Z" fill="white"/>
<path d="M35.4372 44.9447C35.4372 49.2409 31.9545 52.7236 27.6583 52.7236C23.3621 52.7236 19.8794 49.2409 19.8794 44.9447C19.8794 40.6486 23.3621 37.1658 27.6583 37.1658C31.9545 37.1658 35.4372 40.6486 35.4372 44.9447Z" fill="white"/>
<path d="M57.9095 44.0804C57.9095 48.3766 54.4268 51.8593 50.1307 51.8593C45.8345 51.8593 42.3518 48.3766 42.3518 44.0804C42.3518 39.7842 45.8345 36.3015 50.1307 36.3015C54.4268 36.3015 57.9095 39.7842 57.9095 44.0804Z" fill="white"/>
<path d="M13.8406 30.8922L5.1974 25.8941V34.5729C0.928022 35.7239 -0.125556 37.8098 0.0114671 43.6482C0.423022 49.9553 1.65807 51.5087 5.1974 51.8593V59.6382L13.8406 54.8844V30.8922Z" fill="#1967FC"/>
<path fill-rule="evenodd" clip-rule="evenodd" d="M20.5431 27.779L10.1279 21.7563C17.7562 17.21 24.7082 16.0256 37.1773 16.4221V9.9397H41.9311V16.4221C52.3676 15.7641 58.8426 16.983 67.6348 21.83L57.4987 27.6914L51.4386 25.0653C47.6607 27.5262 45.1884 28.4469 39.7702 28.9548C34.0629 28.903 31.1437 28.3029 26.8054 25.0653L20.5431 27.779Z" fill="white"/>
<path d="M64.4036 30.6875L65.2678 54.8844L73.0467 59.6382V51.8593C77.8286 51.813 78.8196 49.7339 78.6647 43.6482C78.7613 37.9823 77.5302 35.8514 73.0467 34.5729V25.6895L64.4036 30.6875Z" fill="#1967FC"/>
</svg>
