<svg width="313" height="64" viewBox="0 0 313 64" fill="none" xmlns="http://www.w3.org/2000/svg">
<path d="M24.4938 53.7303C24.4938 60.5768 21.4497 64 15.3615 64H14.1695V9.48148H24.4938V53.7303Z" fill="#1967FC"/>
<path d="M0 9.48148H10.6319V39.0313H8.9016C4.18484 39.0313 1.37145 37.222 0.461422 33.6034C0.153807 32.4309 0 31.0776 0 29.5433V9.48148Z" fill="white"/>
<path d="M65.9745 36.8612C65.9745 38.152 65.893 39.3179 65.73 40.3589H39.9984C40.2022 43.1072 41.2005 45.3141 42.9933 46.9797C44.7862 48.6454 46.9865 49.4782 49.5943 49.4782C53.343 49.4782 55.9916 47.875 57.5399 44.6687H65.0577C64.039 47.8334 62.1851 50.4359 59.4958 52.4763C56.8472 54.475 53.5468 55.4743 49.5943 55.4743C46.3753 55.4743 43.4823 54.7457 40.9152 53.2882C38.3889 51.7892 36.3924 49.7072 34.9255 47.0422C33.4993 44.3356 32.7863 41.2126 32.7863 37.6732C32.7863 34.1337 33.479 31.0315 34.8643 28.3666C36.2905 25.6599 38.2667 23.5779 40.793 22.1205C43.3601 20.6631 46.2938 19.9344 49.5943 19.9344C52.7726 19.9344 55.6045 20.6423 58.09 22.0581C60.5756 23.4738 62.511 25.4726 63.8964 28.0543C65.2818 30.5943 65.9745 33.5299 65.9745 36.8612ZM58.7012 34.6126C58.6605 31.9893 57.7437 29.8864 55.9508 28.3041C54.1579 26.7218 51.9373 25.9306 49.2887 25.9306C46.8846 25.9306 44.8269 26.7218 43.1156 28.3041C41.4042 29.8448 40.3855 31.9476 40.0596 34.6126H58.7012Z" fill="white"/>
<path d="M70.5089 37.5482C70.5089 34.0921 71.2016 31.0315 72.587 28.3666C74.0131 25.7016 75.9282 23.6404 78.3323 22.183C80.7771 20.6839 83.4664 19.9344 86.4001 19.9344C89.0487 19.9344 91.3509 20.4757 93.3067 21.5584C95.3033 22.5994 96.8924 23.9111 98.0741 25.4934V20.4966H105.103V54.9122H98.0741V49.7905C96.8924 51.4144 95.2829 52.7677 93.2456 53.8504C91.2082 54.933 88.8857 55.4743 86.2779 55.4743C83.3849 55.4743 80.7363 54.7248 78.3323 53.2258C75.9282 51.6851 74.0131 49.5614 72.587 46.8548C71.2016 44.1066 70.5089 41.0044 70.5089 37.5482ZM98.0741 37.6732C98.0741 35.2997 97.5851 33.2385 96.6072 31.4896C95.67 29.7407 94.4272 28.4082 92.8789 27.4921C91.3305 26.576 89.6599 26.118 87.867 26.118C86.0741 26.118 84.4035 26.576 82.8551 27.4921C81.3068 28.3666 80.0436 29.6782 79.0657 31.4271C78.1285 33.1344 77.6599 35.1747 77.6599 37.5482C77.6599 39.9217 78.1285 42.0037 79.0657 43.7943C80.0436 45.5848 81.3068 46.9589 82.8551 47.9167C84.4443 48.8327 86.1149 49.2908 87.867 49.2908C89.6599 49.2908 91.3305 48.8327 92.8789 47.9167C94.4272 47.0006 95.67 45.6681 96.6072 43.9192C97.5851 42.1287 98.0741 40.0466 98.0741 37.6732Z" fill="white"/>
<path d="M121.222 25.4934C122.241 23.7445 123.586 22.3912 125.256 21.4335C126.968 20.4341 128.985 19.9344 131.307 19.9344V27.3047H129.535C126.805 27.3047 124.727 28.0126 123.3 29.4284C121.915 30.8442 121.222 33.3009 121.222 36.7987V54.9122H114.255V20.4966H121.222V25.4934Z" fill="white"/>
<path d="M154.703 19.9344C157.352 19.9344 159.715 20.4966 161.793 21.6208C163.912 22.7451 165.562 24.4107 166.744 26.6177C167.926 28.8246 168.517 31.4896 168.517 34.6126V54.9122H161.61V35.6744C161.61 32.593 160.856 30.2404 159.348 28.6164C157.841 26.9508 155.783 26.118 153.175 26.118C150.568 26.118 148.489 26.9508 146.941 28.6164C145.433 30.2404 144.68 32.593 144.68 35.6744V54.9122H137.712V20.4966H144.68V24.4316C145.821 23.0158 147.267 21.9123 149.019 21.1212C150.812 20.33 152.707 19.9344 154.703 19.9344Z" fill="white"/>
<path d="M208.767 48.5628C201.761 48.355 197.886 47.5315 191.37 43.7387L184.476 48.5628C191.786 52.666 196.04 54.0929 203.515 54.3518L200.889 64L231.745 48.5628L224.851 43.7387C220.038 46.7442 216.398 47.7143 208.767 48.5628Z" fill="#1967FC"/>
<path d="M212.706 3.8593C212.706 5.99073 210.943 7.71859 208.767 7.71859C206.592 7.71859 204.828 5.99073 204.828 3.8593C204.828 1.72787 206.592 0 208.767 0C210.943 0 212.706 1.72787 212.706 3.8593Z" fill="white"/>
<path d="M205.485 33.4472C205.485 36.6444 202.839 39.2362 199.576 39.2362C196.313 39.2362 193.668 36.6444 193.668 33.4472C193.668 30.2501 196.313 27.6583 199.576 27.6583C202.839 27.6583 205.485 30.2501 205.485 33.4472Z" fill="white"/>
<path d="M222.554 32.804C222.554 36.0012 219.908 38.593 216.645 38.593C213.382 38.593 210.737 36.0012 210.737 32.804C210.737 29.6069 213.382 27.0151 216.645 27.0151C219.908 27.0151 222.554 29.6069 222.554 32.804Z" fill="white"/>
<path d="M189.081 22.9896L182.516 19.2701V25.7286C179.273 26.5852 178.473 28.1375 178.577 32.4824C178.889 37.176 179.827 38.332 182.516 38.593V44.3819L189.081 40.8442V22.9896Z" fill="#1967FC"/>
<path fill-rule="evenodd" clip-rule="evenodd" d="M194.172 20.6728L186.261 16.1907C192.055 12.8075 197.335 11.926 206.806 12.2211V7.39698H210.417V12.2211C218.344 11.7314 223.262 12.6385 229.941 16.2456L222.242 20.6075L217.639 18.6533C214.769 20.4846 212.891 21.1698 208.776 21.5477C204.441 21.5092 202.223 21.0626 198.928 18.6533L194.172 20.6728Z" fill="white"/>
<path d="M227.486 22.8372L228.143 40.8442L234.051 44.3819V38.593C237.684 38.5585 238.436 37.0113 238.319 32.4824C238.392 28.2659 237.457 26.6801 234.051 25.7286V19.1178L227.486 22.8372Z" fill="#1967FC"/>
<path fill-rule="evenodd" clip-rule="evenodd" d="M277.939 25.5855C277.939 27.7658 277.403 29.8099 276.333 31.7177C275.302 33.6255 273.657 35.1634 271.397 36.3315C269.177 37.4995 266.362 38.0835 262.952 38.0835H255.994V53.7353H247.668V12.9706H262.952C266.163 12.9706 268.899 13.5157 271.159 14.6058C273.419 15.696 275.104 17.195 276.214 19.1028C277.364 21.0106 277.939 23.1715 277.939 25.5855ZM267.71 29.9656C266.599 30.9779 264.895 31.4841 262.595 31.4841H255.994V19.6284H262.595C267.115 19.6284 269.375 21.6141 269.375 25.5855C269.375 27.4543 268.82 28.9144 267.71 29.9656Z" fill="white"/>
<path d="M312.099 12.9706V19.57H301.037V53.7353H292.711V19.57H281.649V12.9706H312.099Z" fill="white"/>
</svg>
