<svg width="44" height="44" viewBox="0 0 44 44" fill="none" xmlns="http://www.w3.org/2000/svg">
<circle cx="22" cy="22" r="22" fill="#302F32"/>
<path d="M16.4064 26.2088C20.7559 27.9407 24.4573 28.2781 28.6518 25.5823C28.6211 25.6294 27.7914 26.8836 25.6094 27.5263C26.0704 28.1691 26.7004 28.9059 26.7004 28.9059C28.0987 28.9059 29.4662 28.4983 30.6493 27.7144C31.5712 27.0873 32.0936 26.0056 31.9861 24.8768C31.8017 22.9485 31.3561 21.0672 30.6647 19.2643C29.7888 16.9127 27.6838 15.2822 25.2407 15.0471C25.0256 15.0314 24.8719 15.0314 24.7797 15.0314L24.5339 15.2822C27.3458 16.0974 28.744 17.3673 28.7747 17.4143C24.457 15.1881 19.3557 15.1568 15.0073 17.3203C15.0073 17.3203 16.3902 15.925 19.4479 15.1881L19.2635 15C18.9408 15 18.6335 15.0314 18.3108 15.0784C16.0521 15.4703 14.1622 17.0537 13.3478 19.2329C12.641 21.1142 12.18 23.0896 12.011 25.0963C11.9188 26.1623 12.4105 27.2128 13.271 27.8242C14.408 28.5924 15.7602 29 17.1277 29C17.1277 29 17.6808 28.2631 18.234 27.6047C16.1597 26.9776 15.3146 25.7234 15.2992 25.6764L15.6896 25.8797C15.923 26.0016 16.1622 26.1114 16.4064 26.2088ZM18.8179 24.8455C17.8192 24.8141 17.0355 23.9519 17.0663 22.9171C17.097 21.9451 17.8653 21.1613 18.8179 21.1299C19.8167 21.1613 20.6003 22.0235 20.5696 23.0582C20.5235 24.0303 19.7706 24.8141 18.8179 24.8455ZM25.087 24.8455C24.0882 24.8141 23.3046 23.9519 23.3353 22.9171C23.3661 21.9451 24.1343 21.1613 25.087 21.1299C26.0858 21.1613 26.8694 22.0235 26.8387 23.0582C26.808 24.0303 26.0396 24.8141 25.087 24.8455Z" fill="white"/>
</svg>
