<svg width="44" height="44" viewBox="0 0 44 44" fill="none" xmlns="http://www.w3.org/2000/svg">
<circle cx="22" cy="22" r="22" fill="#302F32"/>
<path d="M28.9617 19.116C28.9289 18.3721 28.8086 17.8608 28.6363 17.4176C28.4585 16.9472 28.185 16.5261 27.8268 16.176C27.4766 15.8205 27.0527 15.5442 26.5878 15.3692C26.1421 15.1969 25.6334 15.0766 24.8895 15.0438C24.14 15.0082 23.9021 15 22.0014 15C20.1006 15 19.8627 15.0082 19.116 15.041C18.3722 15.0738 17.8608 15.1942 17.4177 15.3664C16.9472 15.5442 16.5261 15.8177 16.176 16.176C15.8205 16.5261 15.5443 16.95 15.3692 17.4149C15.1969 17.8608 15.0766 18.3694 15.0438 19.1132C15.0082 19.8627 15 20.1006 15 22.0014C15 23.9021 15.0082 24.1401 15.041 24.8867C15.0738 25.6306 15.1942 26.142 15.3666 26.5851C15.5443 27.0555 15.8205 27.4766 16.176 27.8267C16.5261 28.1823 16.95 28.4585 17.415 28.6335C17.8607 28.8058 18.3694 28.9262 19.1134 28.9589C19.8599 28.9919 20.098 28.9999 21.9987 28.9999C23.8995 28.9999 24.1374 28.9919 24.884 28.9589C25.6279 28.9261 26.1393 28.8058 26.5823 28.6335C27.0476 28.4536 27.4702 28.1785 27.823 27.8257C28.1758 27.473 28.4509 27.0504 28.6309 26.5851C28.8031 26.1393 28.9235 25.6306 28.9563 24.8867C28.9891 24.1401 28.9973 23.9021 28.9973 22.0014C28.9973 20.1006 28.9945 19.8627 28.9617 19.116ZM27.701 24.832C27.6709 25.5157 27.556 25.8849 27.4603 26.1311C27.225 26.741 26.741 27.225 26.1311 27.4603C25.8849 27.556 25.5131 27.6709 24.832 27.7009C24.0936 27.7338 23.8721 27.7419 22.0042 27.7419C20.1362 27.7419 19.912 27.7338 19.1762 27.7009C18.4925 27.6709 18.1232 27.556 17.8771 27.4603C17.5736 27.3481 17.2974 27.1703 17.0731 26.9379C16.8406 26.7109 16.6629 26.4374 16.5507 26.1339C16.4549 25.8877 16.3401 25.5157 16.3101 24.8348C16.2772 24.0964 16.2691 23.8748 16.2691 22.0068C16.2691 20.1388 16.2772 19.9146 16.3101 19.179C16.3401 18.4952 16.4549 18.126 16.5507 17.8799C16.6629 17.5763 16.8406 17.3001 17.0759 17.0757C17.3028 16.8433 17.5763 16.6655 17.8799 16.5535C18.126 16.4577 18.498 16.3429 19.179 16.3128C19.9174 16.2799 20.139 16.2717 22.0068 16.2717C23.8776 16.2717 24.099 16.2799 24.8348 16.3128C25.5185 16.3429 25.8877 16.4577 26.1339 16.5534C26.4374 16.6655 26.7136 16.8433 26.9379 17.0757C27.1703 17.3028 27.3481 17.5763 27.4603 17.8799C27.556 18.126 27.6709 18.4979 27.701 19.179C27.7338 19.9174 27.742 20.1388 27.742 22.0068C27.742 23.8748 27.7338 24.0936 27.701 24.832Z" fill="white"/>
<path d="M22.0014 18.4056C20.0159 18.4056 18.405 20.0164 18.405 22.002C18.405 23.9876 20.0159 25.5984 22.0014 25.5984C23.987 25.5984 25.5978 23.9876 25.5978 22.002C25.5978 20.0164 23.987 18.4056 22.0014 18.4056ZM22.0014 24.3349C20.7133 24.3349 19.6685 23.2902 19.6685 22.002C19.6685 20.7138 20.7133 19.6691 22.0014 19.6691C23.2896 19.6691 24.3343 20.7138 24.3343 22.002C24.3343 23.2902 23.2896 24.3349 22.0014 24.3349ZM26.5797 18.2634C26.5797 18.7271 26.2038 19.103 25.74 19.103C25.2764 19.103 24.9004 18.7271 24.9004 18.2634C24.9004 17.7997 25.2764 17.4238 25.74 17.4238C26.2038 17.4238 26.5797 17.7996 26.5797 18.2634Z" fill="white"/>
</svg>
