<svg width="44" height="44" viewBox="0 0 44 44" fill="none" xmlns="http://www.w3.org/2000/svg">
<circle cx="22" cy="22" r="22" fill="#302F32"/>
<path d="M29 29V23.8725C29 21.3525 28.4575 19.4275 25.5175 19.4275C24.1 19.4275 23.155 20.1975 22.77 20.9325H22.735V19.655H19.9525V29H22.8575V24.3625C22.8575 23.1375 23.085 21.965 24.59 21.965C26.0775 21.965 26.095 23.3475 26.095 24.4325V28.9825H29V29ZM15.2275 19.655H18.1325V29H15.2275V19.655ZM16.68 15C15.7525 15 15 15.7525 15 16.68C15 17.6075 15.7525 18.3775 16.68 18.3775C17.6075 18.3775 18.36 17.6075 18.36 16.68C18.36 15.7525 17.6075 15 16.68 15Z" fill="white"/>
</svg>
