<svg width="393" height="56" viewBox="0 0 393 56" fill="none" xmlns="http://www.w3.org/2000/svg">
<path d="M21.6797 33.5684C21.6797 38.6309 19.0077 41.1621 13.6636 41.1621H12.6173V0.849609H21.6797V33.5684Z" fill="#1967FC"/>
<path d="M0.179688 0.849609H9.5121V22.6996H7.99327C3.85303 22.6996 1.38351 21.3617 0.584711 18.686C0.314695 17.8191 0.179688 16.8183 0.179688 15.6838V0.849609Z" fill="white"/>
<path d="M58.061 24.9018C58.061 26.0343 57.9895 27.0572 57.8465 27.9705H35.2711C35.4499 30.3817 36.3257 32.3179 37.8987 33.7792C39.4716 35.2405 41.402 35.9712 43.69 35.9712C46.9788 35.9712 49.3025 34.5647 50.661 31.7517H57.2566C56.3629 34.5281 54.7363 36.8114 52.3769 38.6015C50.0532 40.3551 47.1576 41.2319 43.69 41.2319C40.8658 41.2319 38.3276 40.5925 36.0755 39.3139C33.8591 37.9987 32.1074 36.1721 30.8204 33.834C29.5692 31.4594 28.9436 28.7195 28.9436 25.6142C28.9436 22.5089 29.5513 19.7872 30.7668 17.4492C32.018 15.0745 33.7518 13.2479 35.9682 11.9693C38.2204 10.6906 40.7943 10.0513 43.69 10.0513C46.4784 10.0513 48.9629 10.6724 51.1436 11.9145C53.3242 13.1566 55.0223 14.9101 56.2378 17.1752C57.4532 19.4036 58.061 21.9792 58.061 24.9018ZM51.6798 22.929C51.6441 20.6275 50.8397 18.7826 49.2668 17.3944C47.6938 16.0061 45.7455 15.312 43.4218 15.312C41.3127 15.312 39.5074 16.0061 38.0059 17.3944C36.5045 18.7461 35.6107 20.591 35.3248 22.929H51.6798Z" fill="white"/>
<path d="M62.0391 25.5046C62.0391 22.4724 62.6468 19.7872 63.8623 17.4492C65.1135 15.1111 66.7937 13.3027 68.9029 12.0241C71.0478 10.7089 73.4072 10.0513 75.9811 10.0513C78.3048 10.0513 80.3246 10.5262 82.0405 11.4761C83.7922 12.3894 85.1864 13.5402 86.2231 14.9284V10.5445H92.3898V40.7387H86.2231V36.2452C85.1864 37.6699 83.7743 38.8573 81.9869 39.8071C80.1995 40.7569 78.1618 41.2319 75.8739 41.2319C73.3357 41.2319 71.0121 40.5743 68.9029 39.2591C66.7937 37.9074 65.1135 36.0442 63.8623 33.6696C62.6468 31.2585 62.0391 28.5368 62.0391 25.5046ZM86.2231 25.6142C86.2231 23.5318 85.7942 21.7235 84.9362 20.1891C84.114 18.6547 83.0236 17.4857 81.6652 16.682C80.3067 15.8782 78.841 15.4764 77.2681 15.4764C75.6951 15.4764 74.2294 15.8782 72.871 16.682C71.5125 17.4492 70.4043 18.5999 69.5463 20.1343C68.7241 21.6321 68.313 23.4222 68.313 25.5046C68.313 27.5869 68.7241 29.4136 69.5463 30.9845C70.4043 32.5554 71.5125 33.761 72.871 34.6012C74.2652 35.4049 75.7309 35.8068 77.2681 35.8068C78.841 35.8068 80.3067 35.4049 81.6652 34.6012C83.0236 33.7975 84.114 32.6284 84.9362 31.0941C85.7942 29.5232 86.2231 27.6965 86.2231 25.6142Z" fill="white"/>
<path d="M106.532 14.9284C107.426 13.394 108.605 12.2067 110.071 11.3665C111.573 10.4897 113.342 10.0513 115.38 10.0513V16.5176H113.825C111.43 16.5176 109.606 17.1386 108.355 18.3807C107.14 19.6228 106.532 21.7783 106.532 24.847V40.7387H100.419V10.5445H106.532V14.9284Z" fill="white"/>
<path d="M135.906 10.0513C138.23 10.0513 140.303 10.5445 142.126 11.5309C143.985 12.5172 145.433 13.9786 146.47 15.9148C147.507 17.851 148.025 20.1891 148.025 22.929V40.7387H141.966V23.8606C141.966 21.1572 141.304 19.0931 139.982 17.6683C138.659 16.207 136.854 15.4764 134.566 15.4764C132.278 15.4764 130.455 16.207 129.096 17.6683C127.773 19.0931 127.112 21.1572 127.112 23.8606V40.7387H120.999V10.5445H127.112V13.9968C128.113 12.7547 129.382 11.7866 130.919 11.0925C132.492 10.3984 134.155 10.0513 135.906 10.0513Z" fill="white"/>
<path d="M179.899 2.65345V7.74974H169.979V40.7387H163.866V7.74974H153.892V2.65345H179.899Z" fill="white"/>
<path d="M232.19 10.0513C234.478 10.0513 236.498 10.5262 238.249 11.4761C240.037 12.3894 241.431 13.5402 242.432 14.9284V10.5445H248.599V41.2319C248.599 44.0083 248.027 46.4743 246.883 48.6297C245.739 50.8217 244.076 52.5387 241.896 53.7808C239.751 55.0229 237.177 55.644 234.174 55.644C230.17 55.644 226.845 54.6759 224.2 52.7396C221.555 50.8399 220.053 48.2461 219.696 44.9582H225.755C226.22 46.5291 227.203 47.7895 228.704 48.7393C230.242 49.7257 232.065 50.2189 234.174 50.2189C236.641 50.2189 238.625 49.4517 240.126 47.9173C241.663 46.383 242.432 44.1545 242.432 41.2319V36.1904C241.395 37.6151 239.983 38.8207 238.196 39.8071C236.444 40.7569 234.442 41.2319 232.19 41.2319C229.616 41.2319 227.257 40.5743 225.112 39.2591C223.002 37.9074 221.322 36.0442 220.071 33.6696C218.856 31.2585 218.248 28.5368 218.248 25.5046C218.248 22.4724 218.856 19.7872 220.071 17.4492C221.322 15.1111 223.002 13.3027 225.112 12.0241C227.257 10.7089 229.616 10.0513 232.19 10.0513ZM242.432 25.6142C242.432 23.5318 242.003 21.7235 241.145 20.1891C240.323 18.6547 239.232 17.4857 237.874 16.682C236.515 15.8782 235.05 15.4764 233.477 15.4764C231.904 15.4764 230.438 15.8782 229.08 16.682C227.721 17.4492 226.613 18.5999 225.755 20.1343C224.933 21.6321 224.522 23.4222 224.522 25.5046C224.522 27.5869 224.933 29.4136 225.755 30.9845C226.613 32.5554 227.721 33.761 229.08 34.6012C230.474 35.4049 231.94 35.8068 233.477 35.8068C235.05 35.8068 236.515 35.4049 237.874 34.6012C239.232 33.7975 240.323 32.6284 241.145 31.0941C242.003 29.5232 242.432 27.6965 242.432 25.6142Z" fill="white"/>
<path d="M283.707 24.9018C283.707 26.0343 283.636 27.0572 283.493 27.9705H260.918C261.096 30.3817 261.972 32.3179 263.545 33.7792C265.118 35.2405 267.048 35.9712 269.336 35.9712C272.625 35.9712 274.949 34.5647 276.307 31.7517H282.903C282.009 34.5281 280.383 36.8114 278.023 38.6015C275.7 40.3551 272.804 41.2319 269.336 41.2319C266.512 41.2319 263.974 40.5925 261.722 39.3139C259.506 37.9987 257.754 36.1721 256.467 33.834C255.216 31.4594 254.59 28.7195 254.59 25.6142C254.59 22.5089 255.198 19.7872 256.413 17.4492C257.664 15.0745 259.398 13.2479 261.615 11.9693C263.867 10.6906 266.441 10.0513 269.336 10.0513C272.125 10.0513 274.609 10.6724 276.79 11.9145C278.971 13.1566 280.669 14.9101 281.884 17.1752C283.1 19.4036 283.707 21.9792 283.707 24.9018ZM277.326 22.929C277.29 20.6275 276.486 18.7826 274.913 17.3944C273.34 16.0061 271.392 15.312 269.068 15.312C266.959 15.312 265.154 16.0061 263.652 17.3944C262.151 18.7461 261.257 20.591 260.971 22.929H277.326Z" fill="white"/>
<path d="M296.855 15.6408V32.3545C296.855 33.487 297.105 34.3089 297.606 34.8204C298.142 35.2953 299.036 35.5328 300.287 35.5328H304.041V40.7387H299.215C296.462 40.7387 294.353 40.0811 292.887 38.7659C291.421 37.4507 290.688 35.3136 290.688 32.3545V15.6408H287.203V10.5445H290.688V3.03704H296.855V10.5445H304.041V15.6408H296.855Z" fill="white"/>
<path d="M324.957 10.0513C327.21 10.0513 329.211 10.5445 330.963 11.5309C332.751 12.5172 334.145 13.9786 335.146 15.9148C336.182 17.851 336.701 20.1891 336.701 22.929V40.7387H330.641V23.8606C330.641 21.1572 329.98 19.0931 328.657 17.6683C327.335 16.207 325.529 15.4764 323.241 15.4764C320.954 15.4764 319.13 16.207 317.772 17.6683C316.449 19.0931 315.788 21.1572 315.788 23.8606V40.7387H309.675V0.1875H315.788V14.0516C316.825 12.773 318.129 11.7866 319.702 11.0925C321.311 10.3984 323.063 10.0513 324.957 10.0513Z" fill="white"/>
<path d="M371.578 24.9018C371.578 26.0343 371.507 27.0572 371.364 27.9705H348.788C348.967 30.3817 349.843 32.3179 351.416 33.7792C352.989 35.2405 354.919 35.9712 357.207 35.9712C360.496 35.9712 362.82 34.5647 364.178 31.7517H370.774C369.88 34.5281 368.253 36.8114 365.894 38.6015C363.57 40.3551 360.675 41.2319 357.207 41.2319C354.383 41.2319 351.845 40.5925 349.593 39.3139C347.376 37.9987 345.624 36.1721 344.338 33.834C343.086 31.4594 342.461 28.7195 342.461 25.6142C342.461 22.5089 343.068 19.7872 344.284 17.4492C345.535 15.0745 347.269 13.2479 349.485 11.9693C351.738 10.6906 354.311 10.0513 357.207 10.0513C359.995 10.0513 362.48 10.6724 364.661 11.9145C366.841 13.1566 368.539 14.9101 369.755 17.1752C370.97 19.4036 371.578 21.9792 371.578 24.9018ZM365.197 22.929C365.161 20.6275 364.357 18.7826 362.784 17.3944C361.211 16.0061 359.263 15.312 356.939 15.312C354.83 15.312 353.024 16.0061 351.523 17.3944C350.022 18.7461 349.128 20.591 348.842 22.929H365.197Z" fill="white"/>
<path d="M383.707 14.9284C384.601 13.394 385.78 12.2067 387.246 11.3665C388.748 10.4897 390.517 10.0513 392.555 10.0513V16.5176H391C388.604 16.5176 386.781 17.1386 385.53 18.3807C384.315 19.6228 383.707 21.7783 383.707 24.847V40.7387H377.594V10.5445H383.707V14.9284Z" fill="white"/>
<path d="M201.527 41.1384C201.413 41.142 201.304 41.1438 201.198 41.1438C197.029 41.1438 186.518 41.7823 183.412 34.6356C180.561 28.072 191.198 18.0087 192.951 16.4125C193.106 16.2704 193.192 16.1947 193.192 16.1947C193.192 16.1947 192.729 15.9255 202.105 15.6387C212.872 22.178 214.573 27.3537 214.573 27.3537C217.999 37.9607 205.995 40.9923 201.527 41.1384Z" fill="#1967FC"/>
<g style="mix-blend-mode:multiply" opacity="0.3">
<path d="M201.527 41.1421C201.413 41.1457 201.304 41.1475 201.198 41.1475C197.029 41.1475 186.518 41.786 183.412 34.6394C180.561 28.0757 191.198 18.0125 192.951 16.4162C193.397 16.3607 193.827 16.377 194.237 16.4784C194.394 16.5163 172.408 38.791 201.527 41.1421Z" fill="#1967FC"/>
</g>
<path d="M191.41 10.5891C191.41 10.5891 193.158 8.23395 195.627 9.10243C198.096 9.96956 200.084 10.6202 201.388 10.0007C202.69 9.3811 203.371 8.89005 203.734 10.2509C204.096 11.6118 199.158 14.9572 199.158 14.9572C199.158 14.9572 191.615 14.9572 191.41 10.5891Z" fill="#1967FC"/>
<g style="mix-blend-mode:multiply" opacity="0.2">
<path d="M191.41 11.6192C191.41 11.6192 193.158 9.26407 195.627 10.1312C198.095 10.9997 200.084 11.649 201.388 11.0294C202.689 10.4099 203.371 9.91881 203.733 11.2797C204.096 12.6406 199.158 15.9873 199.158 15.9873C199.158 15.9873 191.615 15.9873 191.41 11.6192Z" fill="#1967FC"/>
</g>
<path d="M204.104 13.9298C203.405 14.7522 202.588 15.4584 201.869 15.7479C200.969 16.1131 199.365 16.3336 197.765 16.4256C196.168 16.5176 194.574 16.4811 193.699 16.3296H193.698C193.481 16.2917 193.31 16.2471 193.192 16.1957C193.192 16.1957 190.366 12.6433 190.327 10.9861C190.311 10.4599 190.58 10.1258 191.306 10.1555C194.323 10.2786 194.393 11.6111 196.45 11.2391C198.507 10.8671 200.016 8.38882 201.386 9.99997C202.758 11.6111 204.232 9.31817 205.467 10.0622C206.263 10.5411 205.378 12.4295 204.104 13.9298Z" fill="#1967FC"/>
<path d="M193.026 15.9837C193.026 15.9837 198.581 17.2444 202.211 15.5859C202.524 15.8984 202.686 15.9985 202.686 15.9985C202.686 15.9985 200.019 17.9276 192.802 16.5505C192.802 16.5505 192.978 16.1419 193.026 15.9837Z" fill="#1967FC"/>
<g style="mix-blend-mode:multiply" opacity="0.2">
<path d="M204.103 13.9328C203.404 14.7553 202.588 15.4614 201.869 15.7509C200.968 16.1162 199.364 16.3367 197.765 16.4287L193.699 16.3326H193.697C193.48 16.2947 193.309 16.2501 193.191 16.1987C193.191 16.1987 190.365 12.6463 190.326 10.9892C190.36 10.9608 191.471 10.0314 192.802 12.0227C194.155 14.0464 194.645 15.8091 196.248 14.9596C197.852 14.11 200.324 10.7754 200.76 12.346C201.194 13.9166 199.591 15.4276 200.76 15.1787C201.67 14.9839 203.427 13.9058 204.103 13.9328Z" fill="#1967FC"/>
</g>
<g opacity="0.9">
<path fill-rule="evenodd" clip-rule="evenodd" d="M199.198 21.3425C199.539 21.3468 199.819 21.5449 199.823 21.7847L199.834 22.6083C200.519 22.6243 201.206 22.6691 201.892 22.7428C202.397 22.7975 202.899 22.8679 203.399 22.9539C203.698 23.0053 203.905 23.2045 203.881 23.4229L203.762 24.4687C203.728 24.7476 203.343 24.9324 202.974 24.839C202.642 24.7561 202.302 24.6878 201.954 24.634C201.348 24.5409 200.708 24.4944 200.035 24.4942L199.859 24.4953L199.89 26.901C201.703 27.1461 203.034 27.5424 203.903 28.0919C204.766 28.6399 205.211 29.3645 205.236 30.2699C205.262 31.2553 204.814 32.0806 203.879 32.7469C202.933 33.4209 201.591 33.8595 199.837 34.0581L199.85 35.0321C199.854 35.2922 199.568 35.5149 199.211 35.5303L199.199 35.5311C198.843 35.5465 198.55 35.3479 198.549 35.0879L198.54 34.1249L198.252 34.1363C197.423 34.1678 196.628 34.1633 195.866 34.1226C195.301 34.0926 194.75 34.041 194.21 33.9677C193.883 33.9248 193.659 33.718 193.691 33.4797L193.875 32.048C193.915 31.7409 194.347 31.535 194.758 31.6206C195.234 31.7219 195.715 31.8018 196.203 31.8603C196.963 31.9506 197.732 31.9897 198.508 31.9778L198.493 29.222C196.733 29.0278 195.411 28.6562 194.542 28.1094C193.67 27.5611 193.235 26.8178 193.24 25.8852C193.246 24.9269 193.72 24.1635 194.659 23.5949C195.587 23.0339 196.899 22.7078 198.587 22.6148L198.578 21.7724C198.576 21.53 198.854 21.3381 199.198 21.3425ZM198.607 24.5422C198.071 24.6005 197.654 24.7271 197.355 24.9236C197.055 25.12 196.906 25.3698 196.908 25.6731C196.909 25.9611 197.049 26.1933 197.329 26.3698C197.609 26.5463 198.042 26.6734 198.627 26.7539L198.607 24.5422ZM199.779 29.3578L199.81 31.88C200.402 31.8416 200.853 31.7096 201.167 31.4866C201.478 31.2645 201.63 30.971 201.623 30.6061C201.617 30.2737 201.466 30.0077 201.171 29.808C200.876 29.6079 200.412 29.4579 199.779 29.3578Z" fill="white"/>
</g>
</svg>
