<svg width="44" height="44" viewBox="0 0 44 44" fill="none" xmlns="http://www.w3.org/2000/svg">
<circle cx="22" cy="22" r="22" fill="#302F32"/>
<path d="M30 15.496L27.4691 28.4172C27.4691 28.4172 27.115 29.313 26.1422 28.8834L20.3028 24.3492L18.1788 23.3099L14.6043 22.0912C14.6043 22.0912 14.0558 21.8936 14.003 21.464C13.9496 21.0336 14.6224 20.8009 14.6224 20.8009L28.8321 15.1556C28.8321 15.1556 30 14.6359 30 15.496Z" fill="white"/>
<path d="M22.5831 26.3981L20.0966 28.6941C20.0966 28.6941 19.9029 28.8432 19.6898 28.7496C19.3766 28.7039 18.458 25.3877 17.8879 23.4089L18.365 23.1016L22.5831 26.3981Z" fill="white"/>
<path d="M19.6898 28.7495C19.3509 28.7172 18.0622 23.9868 17.8879 23.4087L27.1248 17.4674C27.6053 17.1721 27.8622 17.4049 27.4484 17.7958C27.163 18.0659 20.1925 24.4115 20.1925 24.4115L19.6898 28.7495Z" fill="black"/>
</svg>
