<svg width="44" height="44" viewBox="0 0 44 44" fill="none" xmlns="http://www.w3.org/2000/svg">
<circle cx="22" cy="22" r="22" fill="#302F32"/>
<path d="M27.8463 15H16.1537C13.8597 15 12 16.8397 12 19.109V24.891C12 27.1603 13.8597 29 16.1537 29H27.8463C30.1403 29 32 27.1603 32 24.891V19.109C32 16.8397 30.1403 15 27.8463 15ZM25.0371 22.2813L19.5681 24.8616C19.4224 24.9303 19.2541 24.8252 19.2541 24.6655V19.3437C19.2541 19.1818 19.4268 19.0768 19.5729 19.15L25.0418 21.8916C25.2044 21.973 25.2016 22.2037 25.0371 22.2813Z" fill="white"/>
</svg>
